#N canvas 24 460 1036 420 10;
#X obj 51 31 inlet;
#X obj 49 277 outlet;
#X obj 350 108 r /preset/fadetime;
#X text 290 230 line makes a fade between the scenes;
#X obj 208 109 t a a;
#X obj 78 255 s \$1;
#X text 118 26 save uses sssad for preset management;
#X text 118 44 works only when to be changed value has a \$1 receive
name;
#X obj 78 88 sssad/sssad \$1 \$2;
#X obj 134 295 outlet;
#X msg 135 273 set \$1;
#X obj 308 70 inlet;
#X obj 356 206 loadbang;
#X text 351 74 comment;
#X obj 51 56 t a a a a;
#X obj 320 254 delay 1000;
#X obj 624 105 spigot;
#X obj 654 56 tgl 15 0 empty empty empty 17 7 0 10 -262144 -1 -1 0
1;
#X text 529 10 save also in global sssad scene saver;
#X msg 533 74 set \$1;
#X msg 533 96 0;
#X obj 589 74 sel 1;
#X obj 531 131 sssad/sssad \$1;
#X obj 654 35 r /global-saving/\$2;
#X msg 629 241 0;
#X obj 208 141 pack f 0;
#X obj 208 232 line 0 10;
#X obj 712 84 sel 0;
#X obj 722 155 == 0;
#X obj 722 177 tgl 15 0 empty empty empty 17 7 0 10 -262144 -1 -1 1
1;
#X obj 689 199 spigot;
#X obj 689 222 t b;
#X text 665 124 after scene is loaded \, and globalsave is turned of
\, delete sssad content for next scene save;
#X text 120 3 naming: e.g. [save /select_/\$1/ctl \$0];
#X text 552 324 use [save-file] string saving;
#X connect 0 0 14 0;
#X connect 2 0 25 1;
#X connect 4 1 25 0;
#X connect 8 0 4 0;
#X connect 10 0 9 0;
#X connect 11 0 5 0;
#X connect 12 0 15 0;
#X connect 12 0 24 0;
#X connect 14 0 1 0;
#X connect 14 1 8 1;
#X connect 14 1 16 0;
#X connect 14 2 10 0;
#X connect 14 3 19 0;
#X connect 15 0 9 0;
#X connect 16 0 22 1;
#X connect 17 0 16 1;
#X connect 17 0 21 0;
#X connect 17 0 27 0;
#X connect 17 0 28 0;
#X connect 19 0 20 0;
#X connect 20 0 22 1;
#X connect 21 0 20 0;
#X connect 22 0 4 0;
#X connect 22 0 30 0;
#X connect 23 0 17 0;
#X connect 24 0 17 0;
#X connect 25 0 26 0;
#X connect 26 0 5 0;
#X connect 27 0 22 1;
#X connect 28 0 29 0;
#X connect 29 0 30 1;
#X connect 30 0 31 0;
#X connect 31 0 22 1;
