#N canvas 419 522 805 328 10;
#X obj 51 31 inlet;
#X obj 49 277 outlet;
#X obj 78 255 s \$1;
#X text 118 26 save uses sssad for preset management;
#X text 120 43 works only when to be changed value has a \$1 receive
name;
#X obj 78 92 sssad/sssad \$1 \$2;
#X obj 133 274 outlet;
#X msg 134 252 set \$1;
#X obj 51 56 t a a a;
#X obj 308 70 inlet;
#X obj 247 178 loadbang;
#X obj 247 201 delay 1000;
#X obj 484 154 spigot;
#X obj 514 105 tgl 15 0 empty empty empty 17 7 0 10 -262144 -1 -1 0
1;
#X text 389 59 save also in global sssad scene saver;
#X msg 393 123 set \$1;
#X msg 393 144 0;
#X obj 449 123 sel 1;
#X obj 391 180 sssad/sssad \$1;
#X obj 514 84 r /global-saving/\$2;
#X obj 84 161 t a a;
#X msg 341 226 0;
#X obj 540 155 sel 0;
#X obj 392 97 symbol;
#X obj 526 215 == 0;
#X obj 490 261 spigot;
#X obj 526 238 tgl 15 0 empty empty empty 17 7 0 10 -262144 -1 -1 1
1;
#X obj 492 287 t b;
#X connect 0 0 8 0;
#X connect 5 0 20 0;
#X connect 7 0 6 0;
#X connect 8 0 1 0;
#X connect 8 1 5 1;
#X connect 8 1 12 0;
#X connect 8 2 7 0;
#X connect 8 2 23 0;
#X connect 9 0 2 0;
#X connect 10 0 11 0;
#X connect 10 0 21 0;
#X connect 11 0 6 0;
#X connect 12 0 18 1;
#X connect 13 0 12 1;
#X connect 13 0 17 0;
#X connect 13 0 22 0;
#X connect 13 0 24 0;
#X connect 15 0 16 0;
#X connect 16 0 18 1;
#X connect 17 0 16 0;
#X connect 18 0 20 0;
#X connect 18 0 25 0;
#X connect 19 0 13 0;
#X connect 20 0 2 0;
#X connect 20 1 7 0;
#X connect 21 0 13 0;
#X connect 22 0 18 1;
#X connect 23 0 15 0;
#X connect 24 0 26 0;
#X connect 25 0 27 0;
#X connect 26 0 25 1;
#X connect 27 0 18 1;
