#N canvas 196 228 450 300 10;
#X obj 58 89 state-saving-local /letters/\$1;
#X obj 79 45 bng 15 250 50 0 empty empty save -5 -8 0 10 -204786 -1
-1;
#X obj 160 47 bng 15 250 50 0 empty empty load -5 -8 0 10 -203904 -1
-1;
#X floatatom 286 37 5 0 0 0 - /letters/#1/translateO -;
#X floatatom 287 90 5 0 0 0 - - -;
#N canvas 0 0 450 300 put-me-into-new-abstraction 0;
#X obj 61 41 inlet;
#X obj 59 287 outlet;
#X obj 218 151 pack f 1000;
#X obj 360 118 r /preset/fadetime;
#X text 300 240 line makes a fade between the scenes;
#X msg 256 178 set \$1;
#X floatatom 256 200 5 0 0 0 - - -;
#X msg 256 219 set \$1;
#X obj 218 119 t a a;
#X obj 218 242 line 0 5;
#X obj 88 265 s \$1;
#X text 128 36 save uses sssad for preset management;
#X text 128 54 works only when to be changed value has a \$1 receive
name;
#X obj 88 98 sssad/sssad \$1 \$2;
#X obj 144 305 outlet;
#X msg 145 283 set \$1;
#X obj 318 80 inlet;
#X obj 366 216 loadbang;
#X text 361 84 comment;
#X obj 326 180 delay 1000;
#X obj 61 66 t a a a a;
#X text 396 178 hier wird der wert aktuell gehalten;
#X obj 330 264 delay 1000;
#X obj 634 115 spigot;
#X obj 664 66 tgl 15 0 empty empty empty 17 7 0 10 -262144 -1 -1 0
1;
#X text 539 20 save also in global sssad scene saver;
#X msg 543 84 set \$1;
#X msg 543 106 26;
#X obj 599 84 sel 1;
#X obj 541 141 sssad/sssad \$1;
#X obj 664 45 r /global-saving/\$2;
#X connect 0 0 20 0;
#X connect 2 0 9 0;
#X connect 3 0 2 1;
#X connect 3 0 19 1;
#X connect 5 0 6 0;
#X connect 6 0 7 0;
#X connect 7 0 9 0;
#X connect 8 1 2 0;
#X connect 9 0 10 0;
#X connect 13 0 8 0;
#X connect 15 0 14 0;
#X connect 16 0 10 0;
#X connect 17 0 22 0;
#X connect 19 0 6 0;
#X connect 20 0 1 0;
#X connect 20 1 13 1;
#X connect 20 1 23 0;
#X connect 20 2 15 0;
#X connect 20 3 26 0;
#X connect 22 0 14 0;
#X connect 23 0 29 1;
#X connect 24 0 23 1;
#X connect 24 0 28 0;
#X connect 26 0 27 0;
#X connect 27 0 29 1;
#X connect 28 0 27 0;
#X connect 29 0 8 0;
#X connect 30 0 24 0;
#X restore 286 63 pd put-me-into-new-abstraction;
#X msg 477 64;
#X connect 1 0 0 0;
#X connect 2 0 0 1;
#X connect 3 0 5 0;
#X connect 5 0 4 0;
#X connect 5 1 6 0;
#X connect 6 0 5 1;
