#N canvas 122 24 592 346 10;
#X obj 122 150 tgl 10 0 empty empty save -20 5 0 8 -128992 -257985
-258113 0 1;
#X obj 145 217 s /global-saving/\$2;
#X obj 246 143 delay 100;
#X msg 313 143 set \$1;
#X msg 248 172 1;
#X obj 244 103 t b f;
#X obj 189 65 sssad/sssad \$1/saveglobal;
#X obj 98 82 loadbang;
#X msg 97 104 0;
#X text 129 16 naming for global-saving.pd: call global-saving with
OSC-style instance path plus \$0 argument e.g.: [global-saving /output/\$1
\$0];
#X connect 0 0 1 0;
#X connect 0 0 6 1;
#X connect 2 0 4 0;
#X connect 3 0 4 0;
#X connect 4 0 0 0;
#X connect 5 0 2 0;
#X connect 5 1 3 0;
#X connect 6 0 5 0;
#X connect 7 0 8 0;
#X connect 8 0 0 0;
#X coords 0 -1 1 1 32 10 2 100 150;
