#N canvas 0 188 1137 507 10;
#X obj 409 254 outlet;
#X obj 59 19 loadbang;
#X obj 1151 109 inlet;
#X text 1131 87 control inlet;
#X obj 397 86 inlet;
#X obj 463 86 inlet;
#X obj 533 86 inlet;
#X obj 599 86 inlet;
#X obj 404 171 spigot;
#X obj 469 171 spigot;
#X obj 541 171 spigot;
#X obj 609 172 spigot;
#X obj 659 85 inlet;
#X obj 669 171 spigot;
#X obj 59 86 - 1;
#X obj 399 133 r /record/out/1;
#X obj 458 112 r /record/out/2;
#X obj 532 137 r /record/out/3;
#X obj 596 115 r /record/out/4;
#X obj 664 146 r /record/out/5;
#X obj 104 60 r /select_/\$1/ctl;
#X floatatom 251 144 5 0 0 0 - - -;
#X obj 232 100 r /select/fastswitch/plus1;
#X obj 274 182 + 1;
#X floatatom 269 243 5 0 0 0 - - -;
#X obj 242 217 sel 4;
#X msg 230 243 0;
#X obj 241 182 f 1;
#X obj 101 103 cnv 15 88 48 empty select/backround\$1 select__\$1 2
6 0 10 -262144 -33289 0;
#X obj 102 134 hradio 17 1 0 7 empty empty empty 0 -8 0 10 -262144
-1 -1 4;
#X obj 59 65 f \$1;
#X obj 38 386 moses 5;
#X floatatom 14 236 5 0 0 0 - - -;
#X msg 20 459 \; select/backround\$1 color 0 12;
#X msg 220 461 \; select/backround\$1 color 69 12;
#X text 18 495 (c)2011 Jonas Plümke /part of PRINCESS_philotas /gpl
v3;
#N canvas 0 22 450 300 keys 0;
#X obj 18 32 cap_key Q;
#X msg 18 54 0;
#X obj 23 104 s /select_/1/ctl;
#X msg 79 54 1;
#X msg 139 54 2;
#X msg 200 54 3;
#X msg 261 54 4;
#X msg 18 154 0;
#X obj 79 132 cap_key S;
#X obj 139 132 cap_key D;
#X obj 200 132 cap_key F;
#X obj 261 132 cap_key G;
#X msg 79 154 1;
#X msg 139 154 2;
#X msg 200 154 3;
#X msg 261 154 4;
#X obj 22 227 s /select_/2/ctl;
#X obj 18 132 cap_key A;
#X obj 79 32 cap_key W;
#X obj 139 32 cap_key E;
#X obj 200 32 cap_key R;
#X obj 261 32 cap_key T;
#X connect 0 0 1 0;
#X connect 8 0 12 0;
#X connect 9 0 13 0;
#X connect 10 0 14 0;
#X connect 11 0 15 0;
#X connect 17 0 7 0;
#X connect 18 0 3 0;
#X connect 19 0 4 0;
#X connect 20 0 5 0;
#X connect 21 0 6 0;
#X restore 776 39 pd keys;
#X text 770 19 tastatursteuerung;
#X obj 191 101 global-saving /select_/\$1 \$0;
#X obj 105 171 save /select_/\$1/ctl \$0;
#X obj 580 476 s toPhone;
#X obj 580 282 + 1;
#X msg 578 376 /2/push\$1 1;
#X obj 693 253 until;
#X obj 756 299 \$1;
#X msg 692 438 /2/push\$1 0;
#X obj 693 301 f;
#X obj 720 301 + 1;
#X msg 708 280 0;
#X msg 692 228 4;
#X obj 719 322 sel 3;
#X obj 756 379 * 4;
#X obj 693 402 +;
#X obj 693 355 + 1;
#X obj 756 354 - 1;
#X obj 580 249 t f b;
#X obj 741 218 loadbang;
#X obj 599 342 +;
#X obj 774 172 spigot;
#X obj 755 101 inlet;
#X obj 367 48 unpack 0 0 0 0 0 0 0;
#X msg 167 301 0 0 0 0 1 0 0;
#X msg 151 322 0 0 0 1 0 0 0;
#X msg 135 342 0 0 1 0 0 0 0;
#X msg 119 363 0 1 0 0 0 0 0;
#X msg 104 384 1 0 0 0 0 0 0;
#X obj 104 201 sel 0 1 2 3 4 5 6 7;
#X msg 177 279 0 0 0 0 0 1 0;
#X msg 184 258 0 0 0 0 0 0 1;
#X obj 784 141 r /record/out/6;
#X obj 884 175 spigot;
#X obj 865 104 inlet;
#X obj 894 144 r /record/out/7;
#X text 101 114 [------Kamera-----];
#X text 104 133 1--2--3--4--5--6--7;
#X connect 1 0 30 0;
#X connect 2 0 29 0;
#X connect 4 0 8 0;
#X connect 5 0 9 0;
#X connect 6 0 10 0;
#X connect 7 0 11 0;
#X connect 8 0 0 0;
#X connect 9 0 0 0;
#X connect 10 0 0 0;
#X connect 11 0 0 0;
#X connect 12 0 13 0;
#X connect 13 0 0 0;
#X connect 14 0 29 0;
#X connect 15 0 8 0;
#X connect 16 0 9 0;
#X connect 17 0 10 0;
#X connect 18 0 11 0;
#X connect 19 0 13 0;
#X connect 20 0 29 0;
#X connect 21 0 23 0;
#X connect 22 0 27 0;
#X connect 23 0 27 1;
#X connect 24 0 29 0;
#X connect 25 0 26 0;
#X connect 25 1 24 0;
#X connect 26 0 27 0;
#X connect 27 0 23 0;
#X connect 27 0 25 0;
#X connect 29 0 21 0;
#X connect 29 0 39 0;
#X connect 29 0 55 0;
#X connect 30 0 14 0;
#X connect 30 0 32 0;
#X connect 31 0 33 0;
#X connect 31 1 34 0;
#X connect 32 0 31 0;
#X connect 39 0 66 0;
#X connect 41 0 57 0;
#X connect 42 0 40 0;
#X connect 43 0 46 0;
#X connect 44 0 54 0;
#X connect 45 0 40 0;
#X connect 46 0 47 0;
#X connect 46 0 50 0;
#X connect 46 0 53 0;
#X connect 47 0 46 1;
#X connect 48 0 46 1;
#X connect 49 0 43 0;
#X connect 50 0 48 0;
#X connect 51 0 52 1;
#X connect 51 0 57 1;
#X connect 52 0 45 0;
#X connect 53 0 52 0;
#X connect 54 0 51 0;
#X connect 55 0 41 0;
#X connect 55 1 49 0;
#X connect 56 0 44 0;
#X connect 57 0 42 0;
#X connect 58 0 0 0;
#X connect 59 0 58 0;
#X connect 60 0 8 1;
#X connect 60 1 9 1;
#X connect 60 2 10 1;
#X connect 60 3 11 1;
#X connect 60 4 13 1;
#X connect 60 5 58 1;
#X connect 60 6 70 1;
#X connect 61 0 60 0;
#X connect 62 0 60 0;
#X connect 63 0 60 0;
#X connect 64 0 60 0;
#X connect 65 0 60 0;
#X connect 66 0 65 0;
#X connect 66 1 64 0;
#X connect 66 2 63 0;
#X connect 66 3 62 0;
#X connect 66 4 61 0;
#X connect 66 5 67 0;
#X connect 66 6 68 0;
#X connect 67 0 60 0;
#X connect 68 0 60 0;
#X connect 69 0 58 0;
#X connect 70 0 0 0;
#X connect 71 0 70 0;
#X connect 72 0 70 0;
#X coords 0 -1 1 1 123 52 1 100 100;
