#N canvas 387 267 813 634 10;
#X obj 213 335 cnv 15 400 300 empty empty Restore 300 12 0 14 -233017
-123526 0;
#X obj 213 32 cnv 15 400 300 empty empty Save 300 12 0 14 -233017 -123526
0;
#X obj 439 257 textfile;
#X msg 328 158 clear;
#X msg 513 240 print;
#X obj 439 181 list prepend add;
#X obj 439 207 list trim;
#X obj 286 540 textfile;
#X obj 286 482 until;
#X msg 286 461 100;
#X msg 230 523 print;
#X text 281 592 also received inside sssad;
#X obj 439 157 route persist;
#X obj 439 135 list trim;
#X msg 306 192 save;
#X msg 320 231 set;
#X msg 354 542 set;
#X obj 284 79 savepanel;
#X obj 284 122 t a b b;
#X msg 284 305 write \$1;
#X obj 286 438 t b a;
#X msg 333 483 read \$1 \, rewind;
#X obj 286 381 openpanel;
#X text 318 461 Avoid loops. A bang normally also works.;
#X obj 284 101 symbol;
#X msg 225 68 bang;
#X obj 286 415 symbol;
#X text 240 617 Hint: get creative with the [OSCroute] external!;
#X obj 270 27 bng 24 250 50 0 empty empty save 0 -6 0 8 -262144 -1
-1;
#X obj 429 324 bng 24 250 50 0 empty empty load 0 -6 0 8 -262144 -1
-1;
#X text 208 24 again;
#X text 403 358 again;
#X obj 412 377 bng 15 250 50 0 empty empty empty 17 7 0 10 -262144
-1 -1;
#X obj 224 40 bng 15 250 50 0 empty empty empty 17 7 0 10 -262144 -1
-1;
#X obj 265 -14 inlet;
#X obj 429 291 inlet;
#X obj 439 113 r \$1-SSSAD_ADMIN;
#X obj 306 258 s \$1-SSSAD_ADMIN;
#X obj 354 567 s \$1-SSSAD_ADMIN;
#X obj 286 570 s \$1-SSSAD;
#X msg 626 269 /translateO 1 \; /translateI 17 \; /translateO 1 \;
/translateI 17 \;;
#X obj 498 300 print save;
#X msg 640 231 set;
#X obj 546 206 bng 15 250 50 0 empty empty empty 17 7 0 10 -262144
-1 -1;
#X msg 627 171;
#X obj 675 185 print pack;
#X obj 635 133 pack s s;
#X obj 679 109 \$1;
#X connect 2 0 41 0;
#X connect 3 0 2 0;
#X connect 4 0 2 0;
#X connect 5 0 6 0;
#X connect 6 0 2 0;
#X connect 6 0 40 0;
#X connect 7 0 39 0;
#X connect 7 1 8 1;
#X connect 7 1 16 0;
#X connect 8 0 7 0;
#X connect 9 0 8 0;
#X connect 10 0 7 0;
#X connect 12 0 5 0;
#X connect 13 0 12 0;
#X connect 14 0 37 0;
#X connect 15 0 37 0;
#X connect 16 0 38 0;
#X connect 17 0 24 0;
#X connect 18 0 19 0;
#X connect 18 1 14 0;
#X connect 18 2 3 0;
#X connect 19 0 2 0;
#X connect 20 0 9 0;
#X connect 20 1 21 0;
#X connect 21 0 7 0;
#X connect 22 0 26 0;
#X connect 24 0 18 0;
#X connect 25 0 24 0;
#X connect 26 0 20 0;
#X connect 28 0 17 0;
#X connect 29 0 22 0;
#X connect 32 0 26 0;
#X connect 33 0 25 0;
#X connect 34 0 28 0;
#X connect 35 0 29 0;
#X connect 36 0 13 0;
#X connect 42 0 40 0;
#X connect 43 0 2 0;
#X connect 46 0 45 0;
