#N canvas 129 107 450 300 10;
#X declare -path ../bin/cyclone;
#X obj 49 89 atan~;
#X obj 49 40 sig~ 1;
#X obj 49 147 snapshot~;
#X floatatom 49 180 5 0 0 0 - - -;
#X obj 64 119 bng 15 250 50 0 empty empty empty 17 7 0 10 -262144 -1
-1;
#X obj 236 58 declare -path ../bin/cyclone;
#X connect 0 0 2 0;
#X connect 1 0 0 0;
#X connect 2 0 3 0;
#X connect 4 0 2 0;
