#N canvas 33 27 412 498 10;
#N canvas 68 446 297 202 bitflipmix 0;
#X obj 28 24 inlet~;
#X obj 28 163 outlet~;
#X obj 101 23 inlet;
#N canvas 237 252 315 341 bitflip 0;
#X obj 36 20 inlet~;
#X obj 36 303 outlet~;
#X obj 195 25 inlet;
#X obj 36 55 *~ 128;
#X obj 36 122 +~ 128;
#X obj 36 147 clip~ 0 255;
#X obj 36 266 hip~ 40;
#X text 71 88 crude noise gate;
#X obj 195 79 switch~;
#X obj 195 50 > 0;
#X text 80 54 scale up;
#X text 93 233 scale down;
#X text 165 173 flip one bit;
#X obj 36 173 cyclone/bitxor~ 32 1;
#X obj 36 204 -~ 160;
#X text 82 203 subtract 128 + 32 = 160;
#X floatatom 250 54 5 0 0 0 - - -;
#X obj 250 24 inlet;
#X obj 36 88 +~ 0;
#X obj 36 233 *~ 0.005;
#X text 80 120 fixed shift;
#X connect 0 0 3 0;
#X connect 2 0 9 0;
#X connect 3 0 18 0;
#X connect 4 0 5 0;
#X connect 5 0 13 0;
#X connect 6 0 1 0;
#X connect 9 0 8 0;
#X connect 13 0 14 0;
#X connect 14 0 19 0;
#X connect 17 0 16 0;
#X connect 17 0 18 1;
#X connect 18 0 4 0;
#X connect 19 0 6 0;
#X restore 44 91 pd bitflip;
#N canvas 991 433 203 282 mix 0;
#X obj 35 23 inlet~;
#X obj 35 235 outlet~;
#X obj 50 71 t b f;
#X msg 50 97 1;
#X obj 50 122 -;
#X obj 114 183 line~;
#X msg 114 159 \$1 100;
#X obj 99 22 inlet~;
#X obj 146 23 inlet;
#X obj 99 208 *~;
#X obj 50 178 line~;
#X msg 50 154 \$1 100;
#X obj 35 203 *~;
#X floatatom 146 71 5 0 0 0 - - -;
#X connect 0 0 12 0;
#X connect 2 0 3 0;
#X connect 2 1 4 1;
#X connect 3 0 4 0;
#X connect 4 0 11 0;
#X connect 5 0 9 1;
#X connect 6 0 5 0;
#X connect 7 0 9 0;
#X connect 8 0 2 0;
#X connect 8 0 13 0;
#X connect 8 0 6 0;
#X connect 9 0 1 0;
#X connect 10 0 12 1;
#X connect 11 0 10 0;
#X connect 12 0 1 0;
#X restore 28 126 pd mix;
#X floatatom 101 46 5 0 0 0 - - -;
#X obj 44 63 *~ 0.3;
#X floatatom 187 50 5 0 0 0 - - -;
#X text 142 25 mix;
#X obj 186 25 inlet;
#X text 229 24 noisegate;
#X connect 0 0 4 0;
#X connect 0 0 6 0;
#X connect 2 0 3 1;
#X connect 2 0 4 2;
#X connect 2 0 5 0;
#X connect 3 0 4 1;
#X connect 4 0 1 0;
#X connect 6 0 3 0;
#X connect 9 0 3 2;
#X connect 9 0 7 0;
#X restore 39 136 pd bitflipmix;
#X obj 80 90 hsl 128 15 0 1 0 1 empty empty dry-wet 20 8 0 10 -262144
-260097 -1 11300 0;
#N canvas 115 286 356 302 testsignals 0;
#X obj 44 18 inlet;
#X obj 173 23 inlet;
#X obj 29 265 outlet~;
#X obj 44 138 line~;
#X obj 29 227 *~;
#X obj 44 89 t b b;
#X msg 74 166 0.25;
#X obj 44 61 metro 500;
#X obj 152 119 *~ 0;
#X obj 29 191 osc~ 100;
#X msg 44 113 1.1 \, 0 200;
#X obj 252 23 inlet;
#X obj 210 192 adc~;
#X obj 231 223 *~ 0;
#X obj 152 61 noise~;
#X obj 152 146 lop~ 500;
#X obj 173 89 * 0.05;
#X connect 0 0 7 0;
#X connect 1 0 16 0;
#X connect 3 0 4 1;
#X connect 4 0 2 0;
#X connect 5 0 10 0;
#X connect 5 1 6 0;
#X connect 6 0 9 1;
#X connect 7 0 5 0;
#X connect 8 0 15 0;
#X connect 9 0 4 0;
#X connect 10 0 3 0;
#X connect 11 0 13 1;
#X connect 12 0 13 0;
#X connect 12 1 13 0;
#X connect 13 0 2 0;
#X connect 14 0 8 0;
#X connect 15 0 2 0;
#X connect 16 0 8 1;
#X restore 39 63 pd testsignals;
#X obj 39 2 tgl 15 1 empty empty empty 17 7 0 10 -262144 -1 -1 1 1
;
#X obj 79 20 tgl 15 1 empty empty empty 17 7 0 10 -262144 -1 -1 1 1
;
#X text 56 0 sine resonator 100 Hz;
#X obj 120 40 tgl 15 0 empty empty empty 17 7 0 10 -262144 -1 -1 0
1;
#X text 140 39 adc~;
#X text 99 19 lo pass filtered noise;
#X obj 39 341 dac~;
#X obj 39 312 *~ 0;
#X obj 63 285 hsl 128 15 0 1 0 0 empty empty output-level 20 8 0 10
-262144 -260097 -1 7000 0;
#X floatatom 73 313 5 0 0 0 - - -;
#N canvas 746 426 326 223 scope 0;
#N canvas 0 22 450 300 (subpatch) 0;
#X array \$0-scope 512 float 0;
#X coords 0 1 511 -1 200 100 1;
#X restore 100 50 graph;
#X obj 32 134 inlet~;
#X obj 32 185 tabwrite~ \$0-scope;
#X obj 224 186 block~ 8192;
#X obj 47 161 bang~;
#X connect 1 0 2 0;
#X connect 4 0 2 0;
#X coords 0 -1 1 1 200 100 2 100 50;
#X restore 65 172 pd scope;
#X text 37 368 [bitflip~] casts the scaled signal value to 7-bit int
and flips one bit (at bit index 5).;
#X msg 326 185 \; pd dsp 1;
#X msg 326 229 \; pd dsp 0;
#X obj 326 159 loadbang;
#X text 37 469 Katja Vetter Jan 2013;
#X obj 117 113 hsl 128 15 0 1 0 1 empty empty noise-gate 20 8 0 10
-262144 -260097 -1 7400 0;
#X text 37 406 A crude noise gate on the bit-flipped signal is applied
by adding a small amount of DC to move the noise floor upwards. A high
pass filter at 40 Hz is applied to eliminate DC from the bit flipped
signal.;
#X connect 0 0 10 0;
#X connect 0 0 13 0;
#X connect 1 0 0 1;
#X connect 2 0 0 0;
#X connect 3 0 2 0;
#X connect 4 0 2 1;
#X connect 6 0 2 2;
#X connect 10 0 9 0;
#X connect 10 0 9 1;
#X connect 11 0 10 1;
#X connect 11 0 12 0;
#X connect 17 0 15 0;
#X connect 19 0 0 2;
