#N canvas 0 22 435 373 10;
#X declare -path ../bin;
#X obj 47 51 osc~ 440;
#X obj 47 170 snapshot~;
#X floatatom 47 217 5 0 0 0 - - -;
#X obj 63 142 bng 15 250 50 0 empty empty empty 17 7 0 10 -262144 -1
-1;
#X obj 181 110 declare -path ../bin;
#X obj 47 108 freeverb~/freeverb~;
#X connect 0 0 5 0;
#X connect 1 0 2 0;
#X connect 3 0 1 0;
#X connect 5 0 1 0;
