#N canvas 0 22 966 585 10;
#X obj 98 36 inlet;
#X obj 100 135 gemhead;
#X obj 101 384 circle;
#X floatatom 283 351 5 0 0 0 - - -, f 5;
#X msg 109 348 draw line;
#X msg 183 348 width \$1;
#X floatatom 184 327 5 0 0 0 - - -, f 5;
#X obj 335 66 loadbang;
#X obj 183 303 r width;
#X floatatom 371 225 5 0 0 0 - - -, f 5;
#X obj 100 246 translateXYZ 0 0 0;
#X floatatom 417 225 5 0 0 0 - - -, f 5;
#X obj 283 302 / 9;
#X obj 283 324 * 2;
#X obj 417 165 / 9;
#X obj 417 187 * 2;
#X floatatom 417 148 5 0 0 0 - - -, f 5;
#X obj 461 163 / 9;
#X obj 461 185 * 2;
#X floatatom 461 146 5 0 0 0 - - -, f 5;
#X msg 108 110 set \$1;
#X obj 108 86 r /Circles/renderOrder;
#X obj 290 240 \$1;
#X obj 417 122 \$2;
#X obj 460 121 \$3;
#X text 636 131 Arguments: <size><posX><posY>;
#X obj 287 107 inlet;
#X floatatom 281 268 5 0 0 0 - - -, f 5;
#X obj 423 74 inlet;
#X obj 472 76 inlet;
#X obj 151 49 r /circles/on;
#X obj 103 64 tgl 15 0 empty empty empty 17 7 0 10 -262144 -1 -1 0
1;
#X connect 0 0 31 0;
#X connect 1 0 10 0;
#X connect 3 0 2 1;
#X connect 4 0 2 0;
#X connect 5 0 2 0;
#X connect 6 0 5 0;
#X connect 7 0 4 0;
#X connect 7 0 22 0;
#X connect 7 0 24 0;
#X connect 7 0 23 0;
#X connect 8 0 6 0;
#X connect 9 0 10 1;
#X connect 10 0 2 0;
#X connect 11 0 10 2;
#X connect 12 0 13 0;
#X connect 13 0 3 0;
#X connect 14 0 15 0;
#X connect 15 0 9 0;
#X connect 16 0 14 0;
#X connect 17 0 18 0;
#X connect 18 0 11 0;
#X connect 19 0 17 0;
#X connect 20 0 1 0;
#X connect 21 0 20 0;
#X connect 22 0 27 0;
#X connect 23 0 16 0;
#X connect 24 0 19 0;
#X connect 26 0 27 0;
#X connect 27 0 12 0;
#X connect 28 0 16 0;
#X connect 29 0 19 0;
#X connect 30 0 31 0;
#X connect 31 0 1 0;
