#N canvas 109 197 757 476 10;
#X obj 127 56 loadbang;
#X text 45 28 middle big;
#X floatatom 149 322 5 0 0 0 - - -, f 5;
#X obj 92 376 tgl 15 0 empty empty empty 17 7 0 10 -262144 -1 -1 1
1;
#X obj 92 396 s /circles/on;
#X obj 93 318 inlet;
#X msg 149 296 62;
#X obj 473 121 circle-PC 4 26 12;
#X obj 463 271 circle-PC 4 26 -12;
#X obj 273 131 circle-PC 4 -26 12;
#X obj 263 281 circle-PC 4 -26 -12;
#X obj 365 214 circle-PC 14 0 0;
#X floatatom 353 104 5 0 0 0 - - -, f 5;
#X floatatom 399 105 5 0 0 0 - - -, f 5;
#X obj 271 102 tgl 15 0 empty empty empty 17 7 0 10 -262144 -1 -1 0
1;
#X floatatom 304 106 5 0 0 0 - - -, f 5;
#X floatatom 553 94 5 0 0 0 - - -, f 5;
#X floatatom 599 95 5 0 0 0 - - -, f 5;
#X obj 471 92 tgl 15 0 empty empty empty 17 7 0 10 -262144 -1 -1 1
1;
#X floatatom 504 96 5 0 0 0 - - -, f 5;
#X floatatom 543 244 5 0 0 0 - - -, f 5;
#X floatatom 589 245 5 0 0 0 - - -, f 5;
#X obj 461 242 tgl 15 0 empty empty empty 17 7 0 10 -262144 -1 -1 0
1;
#X floatatom 494 246 5 0 0 0 - - -, f 5;
#X floatatom 443 194 5 0 0 0 - - -, f 5;
#X floatatom 489 195 5 0 0 0 - - -, f 5;
#X obj 361 192 tgl 15 0 empty empty empty 17 7 0 10 -262144 -1 -1 1
1;
#X floatatom 394 196 5 0 0 0 - - -, f 5;
#X floatatom 343 254 5 0 0 0 - - -, f 5;
#X floatatom 389 255 5 0 0 0 - - -, f 5;
#X obj 261 252 tgl 15 0 empty empty empty 17 7 0 10 -262144 -1 -1 0
1;
#X floatatom 294 256 5 0 0 0 - - -, f 5;
#X obj 148 346 s /Circles/renderOrder;
#X connect 0 0 6 0;
#X connect 2 0 32 0;
#X connect 3 0 4 0;
#X connect 5 0 3 0;
#X connect 6 0 2 0;
#X connect 12 0 9 2;
#X connect 13 0 9 3;
#X connect 14 0 9 0;
#X connect 15 0 9 1;
#X connect 16 0 7 2;
#X connect 17 0 7 3;
#X connect 18 0 7 0;
#X connect 19 0 7 1;
#X connect 20 0 8 2;
#X connect 21 0 8 3;
#X connect 22 0 8 0;
#X connect 23 0 8 1;
#X connect 24 0 11 2;
#X connect 25 0 11 3;
#X connect 26 0 11 0;
#X connect 27 0 11 1;
#X connect 28 0 10 2;
#X connect 29 0 10 3;
#X connect 30 0 10 0;
#X connect 31 0 10 1;
