#N canvas 139 316 1499 609 10;
#X obj 130 103 gemhead;
#X obj 130 268 translateXYZ 0 0 0;
#X obj 130 350 colorRGB 1 1 1;
#X obj 131 512 rectangle 1 1;
#X obj 225 456 / 9;
#X obj 225 478 * 2;
#X floatatom 225 416 5 0 0 0 - - -, f 5;
#X obj 225 436 + 1;
#X floatatom 173 243 5 0 0 0 - - -, f 5;
#X obj 175 191 / 9;
#X obj 175 213 * 2;
#X floatatom 175 150 5 0 0 0 - - -, f 5;
#X obj 175 171 + 1;
#X floatatom 226 498 5 0 0 0 - - -, f 5;
#X obj 177 447 / 9;
#X obj 177 469 * 2;
#X floatatom 177 407 5 0 0 0 - - -, f 5;
#X obj 177 427 + 1;
#X floatatom 178 489 5 0 0 0 - - -, f 5;
#X msg 175 130 -19;
#X msg 177 387 1;
#X msg 225 396 9;
#X floatatom 152 297 5 0 0 0 - - -, f 5;
#X floatatom 178 314 5 0 0 0 - - -, f 5;
#X floatatom 202 331 5 0 0 0 - - -, f 5;
#X obj 300 268 translateXYZ 0 0 0;
#X obj 301 512 rectangle 1 1;
#X obj 395 456 / 9;
#X obj 395 478 * 2;
#X floatatom 395 416 5 0 0 0 - - -, f 5;
#X obj 395 436 + 1;
#X floatatom 343 243 5 0 0 0 - - -, f 5;
#X obj 345 191 / 9;
#X obj 345 213 * 2;
#X floatatom 345 150 5 0 0 0 - - -, f 5;
#X obj 345 171 + 1;
#X floatatom 396 498 5 0 0 0 - - -, f 5;
#X obj 347 447 / 9;
#X obj 347 469 * 2;
#X floatatom 347 407 5 0 0 0 - - -, f 5;
#X obj 347 427 + 1;
#X floatatom 348 489 5 0 0 0 - - -, f 5;
#X msg 347 387 1;
#X msg 395 396 9;
#X floatatom 332 312 5 0 0 0 - - -, f 5;
#X floatatom 374 313 5 0 0 0 - - -, f 5;
#X floatatom 413 318 5 0 0 0 - - -, f 5;
#X msg 307 64 set \$1;
#X floatatom 307 46 5 0 0 0 - - -, f 5;
#X obj 300 103 gemhead 55;
#X obj 300 350 colorRGB 0.8 0.8 0 1;
#X msg 345 130 -15;
#X obj 462 270 translateXYZ 0 0 0;
#X obj 463 514 rectangle 1 1;
#X obj 557 458 / 9;
#X obj 557 480 * 2;
#X floatatom 557 418 5 0 0 0 - - -, f 5;
#X obj 557 438 + 1;
#X floatatom 505 245 5 0 0 0 - - -, f 5;
#X obj 507 193 / 9;
#X obj 507 215 * 2;
#X floatatom 507 152 5 0 0 0 - - -, f 5;
#X obj 507 173 + 1;
#X floatatom 558 500 5 0 0 0 - - -, f 5;
#X obj 509 449 / 9;
#X obj 509 471 * 2;
#X floatatom 509 409 5 0 0 0 - - -, f 5;
#X obj 509 429 + 1;
#X floatatom 510 491 5 0 0 0 - - -, f 5;
#X msg 509 389 1;
#X msg 557 398 9;
#X floatatom 494 314 5 0 0 0 - - -, f 5;
#X floatatom 536 315 5 0 0 0 - - -, f 5;
#X floatatom 575 320 5 0 0 0 - - -, f 5;
#X msg 469 66 set \$1;
#X floatatom 469 48 5 0 0 0 - - -, f 5;
#X obj 462 105 gemhead 55;
#X msg 507 132 -11;
#X obj 462 352 colorRGB 0 0.8 0.8 1;
#X obj 652 270 translateXYZ 0 0 0;
#X obj 653 514 rectangle 1 1;
#X obj 747 458 / 9;
#X obj 747 480 * 2;
#X floatatom 747 418 5 0 0 0 - - -, f 5;
#X obj 747 438 + 1;
#X floatatom 695 245 5 0 0 0 - - -, f 5;
#X obj 697 193 / 9;
#X obj 697 215 * 2;
#X floatatom 697 152 5 0 0 0 - - -, f 5;
#X obj 697 173 + 1;
#X floatatom 748 500 5 0 0 0 - - -, f 5;
#X obj 699 449 / 9;
#X obj 699 471 * 2;
#X floatatom 699 409 5 0 0 0 - - -, f 5;
#X obj 699 429 + 1;
#X floatatom 700 491 5 0 0 0 - - -, f 5;
#X msg 699 389 1;
#X msg 747 398 9;
#X floatatom 684 314 5 0 0 0 - - -, f 5;
#X floatatom 726 315 5 0 0 0 - - -, f 5;
#X floatatom 765 320 5 0 0 0 - - -, f 5;
#X msg 659 66 set \$1;
#X floatatom 659 48 5 0 0 0 - - -, f 5;
#X obj 652 105 gemhead 55;
#X obj 652 352 colorRGB 0 0.8 0 1;
#X msg 697 132 -7;
#X obj 822 270 translateXYZ 0 0 0;
#X obj 823 514 rectangle 1 1;
#X obj 917 458 / 9;
#X obj 917 480 * 2;
#X floatatom 917 418 5 0 0 0 - - -, f 5;
#X obj 917 438 + 1;
#X floatatom 865 245 5 0 0 0 - - -, f 5;
#X obj 867 193 / 9;
#X obj 867 215 * 2;
#X floatatom 867 152 5 0 0 0 - - -, f 5;
#X obj 867 173 + 1;
#X floatatom 918 500 5 0 0 0 - - -, f 5;
#X obj 869 449 / 9;
#X obj 869 471 * 2;
#X floatatom 869 409 5 0 0 0 - - -, f 5;
#X obj 869 429 + 1;
#X floatatom 870 491 5 0 0 0 - - -, f 5;
#X msg 869 389 1;
#X msg 917 398 9;
#X floatatom 854 314 5 0 0 0 - - -, f 5;
#X floatatom 896 315 5 0 0 0 - - -, f 5;
#X floatatom 935 320 5 0 0 0 - - -, f 5;
#X msg 829 66 set \$1;
#X floatatom 829 48 5 0 0 0 - - -, f 5;
#X obj 822 105 gemhead 55;
#X obj 984 272 translateXYZ 0 0 0;
#X obj 985 516 rectangle 1 1;
#X obj 1079 460 / 9;
#X obj 1079 482 * 2;
#X floatatom 1079 420 5 0 0 0 - - -, f 5;
#X obj 1079 440 + 1;
#X floatatom 1027 247 5 0 0 0 - - -, f 5;
#X obj 1029 195 / 9;
#X obj 1029 217 * 2;
#X floatatom 1029 154 5 0 0 0 - - -, f 5;
#X obj 1029 175 + 1;
#X floatatom 1080 502 5 0 0 0 - - -, f 5;
#X obj 1031 451 / 9;
#X obj 1031 473 * 2;
#X floatatom 1031 411 5 0 0 0 - - -, f 5;
#X obj 1031 431 + 1;
#X floatatom 1032 493 5 0 0 0 - - -, f 5;
#X msg 1031 391 1;
#X msg 1079 400 9;
#X floatatom 1016 316 5 0 0 0 - - -, f 5;
#X floatatom 1058 317 5 0 0 0 - - -, f 5;
#X floatatom 1097 322 5 0 0 0 - - -, f 5;
#X msg 991 68 set \$1;
#X floatatom 991 50 5 0 0 0 - - -, f 5;
#X obj 984 107 gemhead 55;
#X obj 1174 272 translateXYZ 0 0 0;
#X obj 1175 516 rectangle 1 1;
#X obj 1269 460 / 9;
#X obj 1269 482 * 2;
#X floatatom 1269 420 5 0 0 0 - - -, f 5;
#X obj 1269 440 + 1;
#X floatatom 1217 247 5 0 0 0 - - -, f 5;
#X obj 1219 195 / 9;
#X obj 1219 217 * 2;
#X floatatom 1219 154 5 0 0 0 - - -, f 5;
#X obj 1219 175 + 1;
#X floatatom 1270 502 5 0 0 0 - - -, f 5;
#X obj 1221 451 / 9;
#X obj 1221 473 * 2;
#X floatatom 1221 411 5 0 0 0 - - -, f 5;
#X obj 1221 431 + 1;
#X floatatom 1222 493 5 0 0 0 - - -, f 5;
#X msg 1221 391 1;
#X msg 1269 400 9;
#X floatatom 1206 316 5 0 0 0 - - -, f 5;
#X floatatom 1248 317 5 0 0 0 - - -, f 5;
#X floatatom 1287 322 5 0 0 0 - - -, f 5;
#X msg 1181 68 set \$1;
#X floatatom 1181 50 5 0 0 0 - - -, f 5;
#X obj 1174 107 gemhead 55;
#X obj 1342 271 translateXYZ 0 0 0;
#X obj 1343 515 rectangle 1 1;
#X obj 1437 459 / 9;
#X obj 1437 481 * 2;
#X floatatom 1437 419 5 0 0 0 - - -, f 5;
#X obj 1437 439 + 1;
#X floatatom 1385 246 5 0 0 0 - - -, f 5;
#X obj 1387 194 / 9;
#X obj 1387 216 * 2;
#X floatatom 1387 153 5 0 0 0 - - -, f 5;
#X obj 1387 174 + 1;
#X floatatom 1438 501 5 0 0 0 - - -, f 5;
#X obj 1389 450 / 9;
#X obj 1389 472 * 2;
#X floatatom 1389 410 5 0 0 0 - - -, f 5;
#X obj 1389 430 + 1;
#X floatatom 1390 492 5 0 0 0 - - -, f 5;
#X msg 1389 390 1;
#X msg 1437 399 9;
#X floatatom 1374 315 5 0 0 0 - - -, f 5;
#X floatatom 1416 316 5 0 0 0 - - -, f 5;
#X floatatom 1455 321 5 0 0 0 - - -, f 5;
#X msg 1349 67 set \$1;
#X floatatom 1349 49 5 0 0 0 - - -, f 5;
#X obj 1342 106 gemhead 55;
#X obj 822 352 colorRGB 0.8 0 0.8 1;
#X obj 984 354 colorRGB 0.8 0 0 1;
#X obj 1174 354 colorRGB 0 0 0.8 1;
#X obj 1342 353 colorRGB 0 0 0 1;
#X obj 200 38 loadbang;
#X obj 252 -1 inlet;
#X msg 867 132 5;
#X msg 1029 134 9;
#X msg 1219 134 13;
#X msg 1387 133 17;
#X connect 0 0 1 0;
#X connect 1 0 2 0;
#X connect 2 0 3 0;
#X connect 4 0 5 0;
#X connect 5 0 13 0;
#X connect 6 0 7 0;
#X connect 7 0 4 0;
#X connect 8 0 1 1;
#X connect 9 0 10 0;
#X connect 10 0 8 0;
#X connect 11 0 12 0;
#X connect 12 0 9 0;
#X connect 13 0 3 2;
#X connect 14 0 15 0;
#X connect 15 0 18 0;
#X connect 16 0 17 0;
#X connect 17 0 14 0;
#X connect 18 0 3 1;
#X connect 19 0 11 0;
#X connect 20 0 16 0;
#X connect 21 0 6 0;
#X connect 22 0 2 1;
#X connect 23 0 2 2;
#X connect 24 0 2 3;
#X connect 25 0 50 0;
#X connect 27 0 28 0;
#X connect 28 0 36 0;
#X connect 29 0 30 0;
#X connect 30 0 27 0;
#X connect 31 0 25 1;
#X connect 32 0 33 0;
#X connect 33 0 31 0;
#X connect 34 0 35 0;
#X connect 35 0 32 0;
#X connect 36 0 26 2;
#X connect 37 0 38 0;
#X connect 38 0 41 0;
#X connect 39 0 40 0;
#X connect 40 0 37 0;
#X connect 41 0 26 1;
#X connect 42 0 39 0;
#X connect 43 0 29 0;
#X connect 44 0 50 1;
#X connect 45 0 50 2;
#X connect 46 0 50 3;
#X connect 47 0 49 0;
#X connect 48 0 47 0;
#X connect 49 0 25 0;
#X connect 50 0 26 0;
#X connect 51 0 34 0;
#X connect 52 0 78 0;
#X connect 54 0 55 0;
#X connect 55 0 63 0;
#X connect 56 0 57 0;
#X connect 57 0 54 0;
#X connect 58 0 52 1;
#X connect 59 0 60 0;
#X connect 60 0 58 0;
#X connect 61 0 62 0;
#X connect 62 0 59 0;
#X connect 63 0 53 2;
#X connect 64 0 65 0;
#X connect 65 0 68 0;
#X connect 66 0 67 0;
#X connect 67 0 64 0;
#X connect 68 0 53 1;
#X connect 69 0 66 0;
#X connect 70 0 56 0;
#X connect 71 0 78 1;
#X connect 72 0 78 2;
#X connect 73 0 78 3;
#X connect 74 0 76 0;
#X connect 75 0 74 0;
#X connect 76 0 52 0;
#X connect 77 0 61 0;
#X connect 78 0 53 0;
#X connect 79 0 104 0;
#X connect 81 0 82 0;
#X connect 82 0 90 0;
#X connect 83 0 84 0;
#X connect 84 0 81 0;
#X connect 85 0 79 1;
#X connect 86 0 87 0;
#X connect 87 0 85 0;
#X connect 88 0 89 0;
#X connect 89 0 86 0;
#X connect 90 0 80 2;
#X connect 91 0 92 0;
#X connect 92 0 95 0;
#X connect 93 0 94 0;
#X connect 94 0 91 0;
#X connect 95 0 80 1;
#X connect 96 0 93 0;
#X connect 97 0 83 0;
#X connect 98 0 104 1;
#X connect 99 0 104 2;
#X connect 100 0 104 3;
#X connect 101 0 103 0;
#X connect 102 0 101 0;
#X connect 103 0 79 0;
#X connect 104 0 80 0;
#X connect 105 0 88 0;
#X connect 106 0 206 0;
#X connect 108 0 109 0;
#X connect 109 0 117 0;
#X connect 110 0 111 0;
#X connect 111 0 108 0;
#X connect 112 0 106 1;
#X connect 113 0 114 0;
#X connect 114 0 112 0;
#X connect 115 0 116 0;
#X connect 116 0 113 0;
#X connect 117 0 107 2;
#X connect 118 0 119 0;
#X connect 119 0 122 0;
#X connect 120 0 121 0;
#X connect 121 0 118 0;
#X connect 122 0 107 1;
#X connect 123 0 120 0;
#X connect 124 0 110 0;
#X connect 125 0 206 1;
#X connect 126 0 206 2;
#X connect 127 0 206 3;
#X connect 128 0 130 0;
#X connect 129 0 128 0;
#X connect 130 0 106 0;
#X connect 131 0 207 0;
#X connect 133 0 134 0;
#X connect 134 0 142 0;
#X connect 135 0 136 0;
#X connect 136 0 133 0;
#X connect 137 0 131 1;
#X connect 138 0 139 0;
#X connect 139 0 137 0;
#X connect 140 0 141 0;
#X connect 141 0 138 0;
#X connect 142 0 132 2;
#X connect 143 0 144 0;
#X connect 144 0 147 0;
#X connect 145 0 146 0;
#X connect 146 0 143 0;
#X connect 147 0 132 1;
#X connect 148 0 145 0;
#X connect 149 0 135 0;
#X connect 150 0 207 1;
#X connect 151 0 207 2;
#X connect 152 0 207 3;
#X connect 153 0 155 0;
#X connect 154 0 153 0;
#X connect 155 0 131 0;
#X connect 156 0 208 0;
#X connect 158 0 159 0;
#X connect 159 0 167 0;
#X connect 160 0 161 0;
#X connect 161 0 158 0;
#X connect 162 0 156 1;
#X connect 163 0 164 0;
#X connect 164 0 162 0;
#X connect 165 0 166 0;
#X connect 166 0 163 0;
#X connect 167 0 157 2;
#X connect 168 0 169 0;
#X connect 169 0 172 0;
#X connect 170 0 171 0;
#X connect 171 0 168 0;
#X connect 172 0 157 1;
#X connect 173 0 170 0;
#X connect 174 0 160 0;
#X connect 175 0 208 1;
#X connect 176 0 208 2;
#X connect 177 0 208 3;
#X connect 178 0 180 0;
#X connect 179 0 178 0;
#X connect 180 0 156 0;
#X connect 181 0 209 0;
#X connect 183 0 184 0;
#X connect 184 0 192 0;
#X connect 185 0 186 0;
#X connect 186 0 183 0;
#X connect 187 0 181 1;
#X connect 188 0 189 0;
#X connect 189 0 187 0;
#X connect 190 0 191 0;
#X connect 191 0 188 0;
#X connect 192 0 182 2;
#X connect 193 0 194 0;
#X connect 194 0 197 0;
#X connect 195 0 196 0;
#X connect 196 0 193 0;
#X connect 197 0 182 1;
#X connect 198 0 195 0;
#X connect 199 0 185 0;
#X connect 200 0 209 1;
#X connect 201 0 209 2;
#X connect 202 0 209 3;
#X connect 203 0 205 0;
#X connect 204 0 203 0;
#X connect 205 0 181 0;
#X connect 206 0 107 0;
#X connect 207 0 132 0;
#X connect 208 0 157 0;
#X connect 209 0 182 0;
#X connect 210 0 19 0;
#X connect 210 0 20 0;
#X connect 210 0 21 0;
#X connect 210 0 51 0;
#X connect 210 0 42 0;
#X connect 210 0 43 0;
#X connect 210 0 77 0;
#X connect 210 0 69 0;
#X connect 210 0 70 0;
#X connect 210 0 105 0;
#X connect 210 0 96 0;
#X connect 210 0 97 0;
#X connect 210 0 212 0;
#X connect 210 0 123 0;
#X connect 210 0 124 0;
#X connect 210 0 213 0;
#X connect 210 0 148 0;
#X connect 210 0 149 0;
#X connect 210 0 214 0;
#X connect 210 0 173 0;
#X connect 210 0 174 0;
#X connect 210 0 215 0;
#X connect 210 0 198 0;
#X connect 210 0 199 0;
#X connect 211 0 0 0;
#X connect 211 0 49 0;
#X connect 211 0 76 0;
#X connect 211 0 103 0;
#X connect 211 0 130 0;
#X connect 211 0 155 0;
#X connect 211 0 180 0;
#X connect 211 0 205 0;
#X connect 212 0 115 0;
#X connect 213 0 140 0;
#X connect 214 0 165 0;
#X connect 215 0 190 0;
