#N canvas 317 130 705 714 10;
#X obj 428 634 text2d;
#X floatatom 486 604 5 0 0 0 - - -, f 5;
#X msg 132 448 font \$1;
#X obj 130 259 openpanel;
#X obj 130 242 bng 15 250 50 0 empty empty empty 0 -6 0 8 -262144 -1
-1;
#X text 593 294 zahlen;
#X floatatom 460 369 5 0 0 0 - - -, f 5;
#X obj 473 469 prepend string;
#N canvas 270 202 647 581 numbers-99-0-99 0;
#X obj 307 45 inlet;
#X obj 307 467 outlet;
#X floatatom 307 64 5 0 0 0 - - -, f 5;
#X obj 352 259 t f f;
#X obj 352 282 / 10;
#X floatatom 350 327 5 0 0 0 - - -, f 5;
#X floatatom 395 327 5 0 0 0 - - -, f 5;
#X obj 351 307 i;
#X obj 395 306 % 10;
#X obj 395 352 + 48;
#X obj 350 353 + 48;
#X obj 307 233 moses 10;
#X floatatom 307 321 5 0 0 0 - - -, f 5;
#X obj 307 300 % 10;
#X obj 307 346 + 48;
#X obj 350 377 list append;
#X obj 307 402 t a;
#X obj 307 173 t f f;
#X obj 307 210 abs;
#X connect 0 0 2 0;
#X connect 2 0 17 0;
#X connect 3 0 4 0;
#X connect 3 1 8 0;
#X connect 4 0 7 0;
#X connect 5 0 10 0;
#X connect 6 0 9 0;
#X connect 7 0 5 0;
#X connect 8 0 6 0;
#X connect 9 0 15 1;
#X connect 10 0 15 0;
#X connect 11 0 13 0;
#X connect 11 1 3 0;
#X connect 12 0 14 0;
#X connect 13 0 12 0;
#X connect 14 0 16 0;
#X connect 15 0 16 0;
#X connect 16 0 1 0;
#X connect 17 0 18 0;
#X connect 18 0 11 0;
#X restore 479 424 pd numbers-99-0-99;
#X obj 145 420 symbol;
#X msg 150 360 /Users/hi/Library/Fonts/DK Otago.otf;
#X msg 49 462 set \$1;
#X msg 161 386 /Users/hi/Library/Fonts/digital-7.ttf;
#X msg 51 495;
#X obj 155 298 r /labels/font;
#X msg 139 336 /Users/hi/Library/Fonts/Lisbon_CG.otf;
#X obj 529 208 loadbang;
#X obj 397 164 translateXYZ 0 0 0;
#X obj 396 112 tgl 15 0 empty empty empty 17 7 0 10 -262144 -1 -1 1
1;
#X obj 393 83 inlet;
#X obj 397 133 gemhead 60;
#X obj 493 574 r /frame-count/size;
#X obj 397 197 colorRGB 1 1 1 1;
#X obj 542 263 r /frame-rate;
#X obj 463 294 f;
#X obj 497 294 + 1;
#X obj 398 231 t a b;
#X obj 463 316 t f f f;
#X obj 509 344 sel 25;
#X floatatom 550 325 5 0 0 0 - - -, f 5;
#X msg 484 271 1;
#X connect 1 0 0 1;
#X connect 2 0 0 0;
#X connect 3 0 2 0;
#X connect 3 0 11 0;
#X connect 4 0 3 0;
#X connect 6 0 8 0;
#X connect 7 0 0 0;
#X connect 8 0 7 0;
#X connect 9 0 2 0;
#X connect 10 0 9 0;
#X connect 11 0 13 0;
#X connect 12 0 9 0;
#X connect 14 0 9 0;
#X connect 15 0 9 0;
#X connect 17 0 22 0;
#X connect 18 0 20 0;
#X connect 19 0 18 0;
#X connect 20 0 17 0;
#X connect 21 0 1 0;
#X connect 22 0 26 0;
#X connect 23 0 29 0;
#X connect 24 0 27 0;
#X connect 25 0 24 1;
#X connect 26 0 0 0;
#X connect 26 1 24 0;
#X connect 27 0 6 0;
#X connect 27 1 28 0;
#X connect 27 2 25 0;
#X connect 28 0 30 0;
#X connect 29 0 28 1;
#X connect 30 0 24 1;
