#N canvas 449 249 972 746 10;
#N canvas 421 81 795 770 coordinates 0;
#X obj 156 418 outlet;
#N canvas 0 22 173 111 pak 0;
#X obj 73 39 t b f;
#X obj 38 19 inlet;
#X obj 38 90 outlet;
#X obj 73 19 inlet;
#X obj 38 69 pack f f 0;
#X obj 110 38 t b f;
#X obj 110 18 inlet;
#X connect 0 0 4 0;
#X connect 0 1 4 1;
#X connect 1 0 4 0;
#X connect 3 0 0 0;
#X connect 4 0 2 0;
#X connect 5 0 4 0;
#X connect 5 1 4 2;
#X connect 6 0 5 0;
#X restore 11 122 pd pak f f f;
#X msg 11 144 set 0 1 \$1 \$2 \$3;
#N canvas 0 22 173 130 pak 0;
#X obj 73 39 t b f;
#X obj 38 19 inlet;
#X obj 38 90 outlet;
#X obj 73 19 inlet;
#X obj 38 69 pack f f 0;
#X connect 0 0 4 0;
#X connect 0 1 4 1;
#X connect 1 0 4 0;
#X connect 3 0 0 0;
#X connect 4 0 2 0;
#X restore 11 312 pd pak f f f;
#X msg 11 334 set 0 0 \$1 \$2 \$3;
#N canvas 0 22 173 130 pak 0;
#X obj 73 39 t b f;
#X obj 38 19 inlet;
#X obj 38 90 outlet;
#X obj 73 19 inlet;
#X obj 38 69 pack f f 0;
#X connect 0 0 4 0;
#X connect 0 1 4 1;
#X connect 1 0 4 0;
#X connect 3 0 0 0;
#X connect 4 0 2 0;
#X restore 361 122 pd pak f f f;
#N canvas 0 22 173 111 pak 0;
#X obj 73 39 t b f;
#X obj 38 19 inlet;
#X obj 38 90 outlet;
#X obj 73 19 inlet;
#X obj 38 69 pack f f 0;
#X connect 0 0 4 0;
#X connect 0 1 4 1;
#X connect 1 0 4 0;
#X connect 3 0 0 0;
#X connect 4 0 2 0;
#X restore 361 312 pd pak f f f;
#X msg 361 334 set 1 0 \$1 \$2 \$3;
#X msg 361 144 set 1 1 \$1 \$2 \$3;
#X obj 11 13 r /output/\$1/vertex/top/left/x;
#X obj 32 65 r /output/\$1/vertex/top/left/y;
#X obj 361 13 r /output/\$1/vertex/top/right/x;
#X obj 372 65 r /output/\$1/vertex/top/right/y;
#X obj 361 173 r /output/\$1/vertex/bottom/right/x;
#X obj 11 173 r /output/\$1/vertex/bottom/left/x;
#X obj 22 235 r /output/\$1/vertex/bottom/left/y;
#X obj 372 235 r /output/\$1/vertex/bottom/right/y;
#X obj 372 259 save /output/\$1/vertex/bottom/right/y \$0;
#X obj 365 197 save /output/\$1/vertex/bottom/right/x \$0;
#X obj 378 90 save /output/\$1/vertex/top/right/y \$0;
#X obj 361 37 save /output/\$1/vertex/top/right/x \$0;
#X obj 11 36 save /output/\$1/vertex/top/left/x \$0;
#X obj 41 88 save /output/\$1/vertex/top/left/y \$0;
#X obj 11 198 save /output/\$1/vertex/bottom/left/x \$0;
#X obj 22 260 save /output/\$1/vertex/bottom/left/y \$0;
#X msg 278 36 -7.11111;
#X msg 302 88 4;
#X msg 294 198 -7.11111;
#X msg 311 260 -4;
#X msg 630 35 7.11111;
#X msg 659 90 4;
#X msg 657 197 7.11111;
#X msg 668 260 -4;
#X obj 21 543 s /output/\$1/vertex/top/left/x;
#X obj 371 543 s /output/\$1/vertex/top/right/x;
#X obj 42 595 s /output/\$1/vertex/top/left/y;
#X obj 382 595 s /output/\$1/vertex/top/right/y;
#X obj 21 663 s /output/\$1/vertex/bottom/left/x;
#X obj 371 663 s /output/\$1/vertex/bottom/right/x;
#X obj 382 705 s /output/\$1/vertex/bottom/right/y;
#X obj 32 705 s /output/\$1/vertex/bottom/left/y;
#X floatatom 289 429 5 0 0 0 - - -, f 5;
#X obj 289 475 * -1;
#X obj 289 451 t f f;
#X floatatom 349 429 5 0 0 0 - - -, f 5;
#X obj 349 475 * -1;
#X obj 349 451 t f f;
#X obj 296 382 r /output/\$1/vertex/x;
#X obj 346 402 r /output/\$1/vertex/y;
#X connect 1 0 2 0;
#X connect 2 0 0 0;
#X connect 3 0 4 0;
#X connect 4 0 0 0;
#X connect 5 0 8 0;
#X connect 6 0 7 0;
#X connect 7 0 0 0;
#X connect 8 0 0 0;
#X connect 9 0 21 0;
#X connect 10 0 22 0;
#X connect 11 0 20 0;
#X connect 12 0 19 0;
#X connect 13 0 18 0;
#X connect 14 0 23 0;
#X connect 15 0 24 0;
#X connect 16 0 17 0;
#X connect 17 0 6 1;
#X connect 17 1 32 0;
#X connect 18 0 6 0;
#X connect 18 1 31 0;
#X connect 19 0 5 1;
#X connect 19 1 30 0;
#X connect 20 0 5 0;
#X connect 20 1 29 0;
#X connect 21 0 1 0;
#X connect 21 1 25 0;
#X connect 22 0 1 1;
#X connect 22 1 26 0;
#X connect 23 0 3 0;
#X connect 23 1 27 0;
#X connect 24 0 3 1;
#X connect 24 1 28 0;
#X connect 25 0 21 1;
#X connect 26 0 22 1;
#X connect 27 0 23 1;
#X connect 28 0 24 1;
#X connect 29 0 20 1;
#X connect 30 0 19 1;
#X connect 31 0 18 1;
#X connect 32 0 17 1;
#X connect 41 0 43 0;
#X connect 42 0 33 0;
#X connect 42 0 37 0;
#X connect 43 0 42 0;
#X connect 43 1 34 0;
#X connect 43 1 38 0;
#X connect 44 0 46 0;
#X connect 45 0 39 0;
#X connect 45 0 40 0;
#X connect 46 0 45 0;
#X connect 46 1 36 0;
#X connect 46 1 35 0;
#X connect 47 0 41 0;
#X connect 48 0 44 0;
#X restore 166 298 pd coordinates;
#X obj 49 162 gemhead;
#X floatatom 77 205 5 0 0 0 - - -, f 5;
#X floatatom 112 205 5 0 0 0 - - -, f 5;
#X floatatom 148 205 5 0 0 0 - - -, f 5;
#X floatatom 117 163 5 0 0 0 - - -, f 5;
#X floatatom 165 163 5 0 0 0 - - -, f 5;
#X floatatom 214 163 5 0 0 0 - - -, f 5;
#X obj 49 226 rotateXYZ 0 0 0;
#X obj 49 326 curve3d 2 2;
#X obj 49 183 translateXYZ 0 0 0;
#X obj 256 59 nbx 5 14 -10000 10000 0 0 /output/\$1/vertex/top/left/x
/output/\$1/vertex/top/left/x x -10 7 0 10 -261234 -1 -1 -7.11111 256
;
#X obj 256 75 nbx 5 14 -10000 10000 0 0 /output/\$1/vertex/top/left/y
/output/\$1/vertex/top/left/y y -10 7 0 10 -261234 -1 -1 4 256;
#X obj 326 59 nbx 5 14 -10000 10000 0 1 /output/\$1/vertex/top/right/x
/output/\$1/vertex/top/right/x x -10 7 0 10 -261234 -1 -1 7.11111 256
;
#X obj 326 75 nbx 5 14 -10000 10000 0 0 /output/\$1/vertex/top/right/y
/output/\$1/vertex/top/right/y y -10 7 0 10 -261234 -1 -1 4 256;
#X obj 256 95 nbx 5 14 -10000 10000 0 0 /output/\$1/vertex/bottom/left/x
/output/\$1/vertex/bottom/left/x x -10 7 0 10 -261234 -1 -1 -7.11111
256;
#X obj 256 111 nbx 5 14 -10000 10000 0 0 /output/\$1/vertex/bottom/left/y
/output/\$1/vertex/bottom/left/y y -10 7 0 10 -261234 -1 -1 -4 256
;
#X obj 326 95 nbx 5 14 -10000 10000 0 0 /output/\$1/vertex/bottom/right/x
/output/\$1/vertex/bottom/right/x x -10 7 0 10 -261234 -1 -1 7.11111
256;
#X obj 326 111 nbx 5 14 -10000 10000 0 0 /output/\$1/vertex/bottom/right/y
/output/\$1/vertex/bottom/right/y y -10 7 0 10 -261234 -1 -1 -4 256
;
#X text 259 37 vertex position;
#X text 345 369 resolution of the;
#X text 366 380 curve grid;
#X msg 519 305 draw line;
#X msg 519 285 draw fill;
#X msg 519 325 draw point;
#X msg 519 346 draw line1;
#X msg 519 367 draw line2;
#X msg 519 388 draw line3;
#X msg 519 409 draw line4;
#X text 506 254 draw the curve;
#X obj 49 262 colorRGB 1 1 1 1;
#X obj 406 253 loadbang;
#X obj 607 405 r width;
#X msg 531 641 width \$1;
#X floatatom 546 601 5 0 0 0 - - -, f 5;
#X obj 49 423 outlet;
#X obj 81 77 inlet;
#X msg 343 629 grid \$1 \$2;
#X msg 545 579 2;
#X obj 343 574 pack f f;
#X msg 343 426 32;
#X floatatom 343 447 5 0 0 0 - - -, f 5;
#X floatatom 397 447 5 0 0 0 - - -, f 5;
#X obj 395 510 t b f;
#X obj 343 654 t a a;
#X obj 500 662 s \$0-curve3d;
#X obj 343 682 s \$0-curve3d;
#X obj 59 301 r \$0-curve3d;
#X obj 439 681 s /Grid/dimen;
#X obj 343 601 t a a;
#X floatatom 781 170 5 0 0 0 - - -, f 5;
#X obj 730 174 *;
#X msg 396 425 18;
#X obj 406 59 nbx 5 14 -10000 10000 0 1 /output/\$1/vertex/x /output/\$1/vertex/x
x -10 7 0 10 -261234 -1 -1 7.11111 256;
#X obj 406 75 nbx 5 14 -10000 10000 0 0 /output/\$1/vertex/y /output/\$1/vertex/y
y -10 7 0 10 -261234 -1 -1 0 256;
#X obj 455 482 / 2;
#X obj 465 532 / 2;
#X obj 455 504 s /grid/resolution/y/half;
#X obj 465 554 s /grid/resolution/x/half;
#X obj 781 143 /;
#X floatatom 829 82 5 0 0 0 - - -, f 5;
#X floatatom 781 62 5 0 0 0 - - -, f 5;
#X obj 781 195 s /screen/ratio;
#X obj 829 108 t b f;
#X obj 781 40 r /screen/size/x;
#X obj 829 61 r /screen/size/y;
#X obj 538 53 r /screen/ratio;
#X obj 538 91 * 4;
#X obj 538 131 s /output/\$1/vertex/x;
#X floatatom 538 112 5 0 0 0 - - -, f 5;
#X floatatom 538 74 5 0 0 0 - - -, f 5;
#X obj 184 461 r /screen/ratio;
#X obj 184 540 *;
#X floatatom 184 563 5 0 0 0 - - -, f 5;
#X obj 184 489 t b f;
#X floatatom 184 522 5 0 0 0 - - -, f 5;
#X obj 406 115 nbx 5 14 -10000 10000 0 0 /Grid/count/vertical /Grid/count/vertical
$ -10 7 0 10 -261234 -1 -1 0 256;
#X obj 351 319 r /Grid/count/vertical;
#N canvas 0 22 954 793 RedGrid 0;
#N canvas 421 81 795 770 coordinates 0;
#X obj 156 418 outlet;
#N canvas 0 22 173 111 pak 0;
#X obj 73 39 t b f;
#X obj 38 19 inlet;
#X obj 38 90 outlet;
#X obj 73 19 inlet;
#X obj 38 69 pack f f 0;
#X obj 110 38 t b f;
#X obj 110 18 inlet;
#X connect 0 0 4 0;
#X connect 0 1 4 1;
#X connect 1 0 4 0;
#X connect 3 0 0 0;
#X connect 4 0 2 0;
#X connect 5 0 4 0;
#X connect 5 1 4 2;
#X connect 6 0 5 0;
#X restore 11 122 pd pak f f f;
#X msg 11 144 set 0 1 \$1 \$2 \$3;
#N canvas 0 22 173 130 pak 0;
#X obj 73 39 t b f;
#X obj 38 19 inlet;
#X obj 38 90 outlet;
#X obj 73 19 inlet;
#X obj 38 69 pack f f 0;
#X connect 0 0 4 0;
#X connect 0 1 4 1;
#X connect 1 0 4 0;
#X connect 3 0 0 0;
#X connect 4 0 2 0;
#X restore 11 312 pd pak f f f;
#X msg 11 334 set 0 0 \$1 \$2 \$3;
#N canvas 0 22 173 130 pak 0;
#X obj 73 39 t b f;
#X obj 38 19 inlet;
#X obj 38 90 outlet;
#X obj 73 19 inlet;
#X obj 38 69 pack f f 0;
#X connect 0 0 4 0;
#X connect 0 1 4 1;
#X connect 1 0 4 0;
#X connect 3 0 0 0;
#X connect 4 0 2 0;
#X restore 361 122 pd pak f f f;
#N canvas 0 22 173 111 pak 0;
#X obj 73 39 t b f;
#X obj 38 19 inlet;
#X obj 38 90 outlet;
#X obj 73 19 inlet;
#X obj 38 69 pack f f 0;
#X connect 0 0 4 0;
#X connect 0 1 4 1;
#X connect 1 0 4 0;
#X connect 3 0 0 0;
#X connect 4 0 2 0;
#X restore 361 312 pd pak f f f;
#X msg 361 334 set 1 0 \$1 \$2 \$3;
#X msg 361 144 set 1 1 \$1 \$2 \$3;
#X obj 11 13 r /output/\$1/vertex/top/left/x;
#X obj 32 65 r /output/\$1/vertex/top/left/y;
#X obj 361 13 r /output/\$1/vertex/top/right/x;
#X obj 372 65 r /output/\$1/vertex/top/right/y;
#X obj 361 173 r /output/\$1/vertex/bottom/right/x;
#X obj 11 173 r /output/\$1/vertex/bottom/left/x;
#X obj 22 235 r /output/\$1/vertex/bottom/left/y;
#X obj 372 235 r /output/\$1/vertex/bottom/right/y;
#X obj 372 259 save /output/\$1/vertex/bottom/right/y \$0;
#X obj 365 197 save /output/\$1/vertex/bottom/right/x \$0;
#X obj 378 90 save /output/\$1/vertex/top/right/y \$0;
#X obj 361 37 save /output/\$1/vertex/top/right/x \$0;
#X obj 11 36 save /output/\$1/vertex/top/left/x \$0;
#X obj 41 88 save /output/\$1/vertex/top/left/y \$0;
#X obj 11 198 save /output/\$1/vertex/bottom/left/x \$0;
#X obj 22 260 save /output/\$1/vertex/bottom/left/y \$0;
#X msg 278 36 -7.11111;
#X msg 302 88 4;
#X msg 294 198 -7.11111;
#X msg 311 260 -4;
#X msg 630 35 7.11111;
#X msg 659 90 4;
#X msg 657 197 7.11111;
#X msg 668 260 -4;
#X obj 21 543 s /output/\$1/vertex/top/left/x;
#X obj 371 543 s /output/\$1/vertex/top/right/x;
#X obj 42 595 s /output/\$1/vertex/top/left/y;
#X obj 382 595 s /output/\$1/vertex/top/right/y;
#X obj 21 663 s /output/\$1/vertex/bottom/left/x;
#X obj 371 663 s /output/\$1/vertex/bottom/right/x;
#X obj 382 705 s /output/\$1/vertex/bottom/right/y;
#X obj 32 705 s /output/\$1/vertex/bottom/left/y;
#X floatatom 289 429 5 0 0 0 - - -, f 5;
#X obj 289 475 * -1;
#X obj 289 451 t f f;
#X floatatom 349 429 5 0 0 0 - - -, f 5;
#X obj 349 475 * -1;
#X obj 349 451 t f f;
#X obj 296 382 r /output/\$1/vertex/x;
#X obj 346 402 r /output/\$1/vertex/y;
#X connect 1 0 2 0;
#X connect 2 0 0 0;
#X connect 3 0 4 0;
#X connect 4 0 0 0;
#X connect 5 0 8 0;
#X connect 6 0 7 0;
#X connect 7 0 0 0;
#X connect 8 0 0 0;
#X connect 9 0 21 0;
#X connect 10 0 22 0;
#X connect 11 0 20 0;
#X connect 12 0 19 0;
#X connect 13 0 18 0;
#X connect 14 0 23 0;
#X connect 15 0 24 0;
#X connect 16 0 17 0;
#X connect 17 0 6 1;
#X connect 17 1 32 0;
#X connect 18 0 6 0;
#X connect 18 1 31 0;
#X connect 19 0 5 1;
#X connect 19 1 30 0;
#X connect 20 0 5 0;
#X connect 20 1 29 0;
#X connect 21 0 1 0;
#X connect 21 1 25 0;
#X connect 22 0 1 1;
#X connect 22 1 26 0;
#X connect 23 0 3 0;
#X connect 23 1 27 0;
#X connect 24 0 3 1;
#X connect 24 1 28 0;
#X connect 25 0 21 1;
#X connect 26 0 22 1;
#X connect 27 0 23 1;
#X connect 28 0 24 1;
#X connect 29 0 20 1;
#X connect 30 0 19 1;
#X connect 31 0 18 1;
#X connect 32 0 17 1;
#X connect 41 0 43 0;
#X connect 42 0 33 0;
#X connect 42 0 37 0;
#X connect 43 0 42 0;
#X connect 43 1 34 0;
#X connect 43 1 38 0;
#X connect 44 0 46 0;
#X connect 45 0 39 0;
#X connect 45 0 40 0;
#X connect 46 0 45 0;
#X connect 46 1 36 0;
#X connect 46 1 35 0;
#X connect 47 0 41 0;
#X connect 48 0 44 0;
#X restore 185 295 pd coordinates;
#X floatatom 77 205 5 0 0 0 - - -, f 5;
#X floatatom 112 205 5 0 0 0 - - -, f 5;
#X floatatom 148 205 5 0 0 0 - - -, f 5;
#X floatatom 117 163 5 0 0 0 - - -, f 5;
#X floatatom 165 163 5 0 0 0 - - -, f 5;
#X floatatom 214 163 5 0 0 0 - - -, f 5;
#X obj 49 226 rotateXYZ 0 0 0;
#X obj 49 326 curve3d 2 2;
#X obj 49 183 translateXYZ 0 0 0;
#X obj 49 423 outlet;
#X obj 81 77 inlet;
#X text 345 369 resolution of the;
#X text 366 380 curve grid;
#X msg 519 305 draw line;
#X msg 519 285 draw fill;
#X msg 519 325 draw point;
#X msg 519 346 draw line1;
#X msg 519 367 draw line2;
#X msg 519 388 draw line3;
#X msg 519 409 draw line4;
#X text 506 254 draw the curve;
#X obj 406 253 loadbang;
#X obj 607 405 r width;
#X msg 531 641 width \$1;
#X floatatom 546 601 5 0 0 0 - - -, f 5;
#X msg 343 629 grid \$1 \$2;
#X msg 545 579 2;
#X obj 343 574 pack f f;
#X floatatom 343 447 5 0 0 0 - - -, f 5;
#X floatatom 397 447 5 0 0 0 - - -, f 5;
#X obj 395 510 t b f;
#X obj 343 654 t a a;
#X obj 343 601 t a a;
#X obj 455 482 / 2;
#X obj 465 532 / 2;
#X obj 455 504 s /grid/resolution/y/half;
#X obj 465 554 s /grid/resolution/x/half;
#X obj 184 461 r /screen/ratio;
#X obj 184 540 *;
#X floatatom 184 563 5 0 0 0 - - -, f 5;
#X obj 184 489 t b f;
#X floatatom 184 522 5 0 0 0 - - -, f 5;
#X obj 503 693 s \$0-RedGrid;
#X obj 333 703 s \$0-RedGrid;
#X obj 59 301 r \$0-RedGrid;
#X obj 49 262 colorRGB 1 0 0 1;
#X obj 49 162 gemhead 75;
#X msg 396 425 2;
#X msg 343 426 2;
#X obj 619 434 r /RedCross/width/plus;
#X obj 596 457 + 2;
#X connect 0 0 8 0;
#X connect 1 0 7 1;
#X connect 2 0 7 2;
#X connect 3 0 7 3;
#X connect 4 0 9 1;
#X connect 5 0 9 2;
#X connect 6 0 9 3;
#X connect 7 0 46 0;
#X connect 8 0 10 0;
#X connect 9 0 7 0;
#X connect 11 0 47 0;
#X connect 14 0 43 0;
#X connect 15 0 43 0;
#X connect 16 0 43 0;
#X connect 17 0 43 0;
#X connect 18 0 43 0;
#X connect 19 0 43 0;
#X connect 20 0 43 0;
#X connect 22 0 27 0;
#X connect 22 0 14 0;
#X connect 22 0 48 0;
#X connect 22 0 49 0;
#X connect 23 0 51 0;
#X connect 24 0 43 0;
#X connect 25 0 24 0;
#X connect 26 0 32 0;
#X connect 27 0 25 0;
#X connect 28 0 33 0;
#X connect 29 0 28 0;
#X connect 29 0 35 0;
#X connect 30 0 31 0;
#X connect 30 0 34 0;
#X connect 31 0 29 0;
#X connect 31 1 28 1;
#X connect 32 0 44 0;
#X connect 33 0 26 0;
#X connect 34 0 36 0;
#X connect 35 0 37 0;
#X connect 38 0 41 0;
#X connect 39 0 40 0;
#X connect 41 0 42 0;
#X connect 41 1 39 1;
#X connect 42 0 39 0;
#X connect 45 0 8 0;
#X connect 46 0 8 0;
#X connect 47 0 9 0;
#X connect 48 0 30 0;
#X connect 49 0 29 0;
#X connect 50 0 51 1;
#X connect 51 0 25 0;
#X restore 714 350 pd RedGrid;
#X obj 713 322 tgl 25 0 empty empty empty 17 7 0 10 -261234 -1 -1 0
1;
#X obj 714 274 inlet;
#X connect 0 0 9 0;
#X connect 1 0 10 0;
#X connect 2 0 8 1;
#X connect 3 0 8 2;
#X connect 4 0 8 3;
#X connect 5 0 10 1;
#X connect 6 0 10 2;
#X connect 7 0 10 3;
#X connect 8 0 30 0;
#X connect 9 0 35 0;
#X connect 10 0 8 0;
#X connect 22 0 45 0;
#X connect 23 0 45 0;
#X connect 24 0 45 0;
#X connect 25 0 45 0;
#X connect 26 0 45 0;
#X connect 27 0 45 0;
#X connect 28 0 45 0;
#X connect 30 0 9 0;
#X connect 31 0 38 0;
#X connect 31 0 22 0;
#X connect 31 0 52 0;
#X connect 31 0 40 0;
#X connect 32 0 34 0;
#X connect 33 0 45 0;
#X connect 34 0 33 0;
#X connect 36 0 1 0;
#X connect 37 0 44 0;
#X connect 38 0 34 0;
#X connect 39 0 49 0;
#X connect 40 0 41 0;
#X connect 41 0 39 0;
#X connect 41 0 56 0;
#X connect 42 0 43 0;
#X connect 42 0 55 0;
#X connect 42 0 75 0;
#X connect 43 0 41 0;
#X connect 43 1 39 1;
#X connect 44 0 46 0;
#X connect 47 0 9 0;
#X connect 49 0 37 0;
#X connect 49 1 48 0;
#X connect 50 0 62 0;
#X connect 52 0 42 0;
#X connect 55 0 57 0;
#X connect 56 0 58 0;
#X connect 59 0 50 0;
#X connect 60 0 63 0;
#X connect 61 0 59 0;
#X connect 63 0 61 0;
#X connect 63 1 59 1;
#X connect 64 0 61 0;
#X connect 65 0 60 0;
#X connect 66 0 70 0;
#X connect 67 0 69 0;
#X connect 69 0 68 0;
#X connect 70 0 67 0;
#X connect 71 0 74 0;
#X connect 72 0 73 0;
#X connect 73 0 41 0;
#X connect 74 0 75 0;
#X connect 74 1 72 1;
#X connect 75 0 72 0;
#X connect 77 0 42 0;
#X connect 79 0 78 0;
#X connect 80 0 79 0;
