#N canvas 219 126 1393 850 10;
#X obj 189 108 loadbang;
#X obj 277 172 s /labels/size;
#X floatatom 277 152 5 0 0 0 - - -, f 5;
#X obj 166 174 s /labels/font;
#X obj 166 132 bng 15 250 50 0 empty empty empty 17 7 0 10 -262144
-1 -1;
#X obj 166 151 openpanel;
#N canvas 618 144 964 776 dynamic-creation 0;
#X obj 60 181 until;
#X obj 59 231 f;
#X obj 89 231 + 1;
#X obj 60 258 t f f;
#X obj 183 359 t f f f;
#X obj 60 156 t f b;
#X obj 183 481 t f f;
#X obj 20 165 bng 15 250 50 0 empty empty empty 17 7 0 10 -262144 -1
-1;
#X obj 230 485 i;
#X obj 185 755 send pd-labels.pd;
#X obj 183 436 % 16;
#X obj 230 463 / 16;
#X obj 234 538 t f f;
#X obj 185 686 pack f f f f;
#X msg 185 722 obj \$1 \$2 label \$3 \$4;
#X floatatom 184 251 5 0 0 0 - - -, f 5;
#X obj 36 353 t f f f;
#X obj 37 478 t f f;
#X obj 87 462 i;
#X obj 38 722 send pd-labels.pd;
#X obj 36 395 % 16;
#X obj 86 442 / 16;
#X obj 87 515 t f f;
#X obj 38 653 pack f f f f;
#X msg 38 689 obj \$1 \$2 label \$3 \$4;
#X obj 64 549 * 25;
#X obj 507 373 t f f f;
#X obj 507 475 t f f;
#X obj 558 509 i;
#X obj 509 749 send pd-labels.pd;
#X obj 507 430 % 16;
#X obj 557 459 / 16;
#X obj 558 532 t f f;
#X obj 509 680 pack f f f f;
#X msg 509 716 obj \$1 \$2 label \$3 \$4;
#X obj 340 370 t f f f;
#X obj 340 472 t f f;
#X obj 391 476 i;
#X obj 342 746 send pd-labels.pd;
#X obj 340 427 % 16;
#X obj 390 456 / 16;
#X obj 391 529 t f f;
#X obj 342 687 pack f f f f;
#X msg 342 713 obj \$1 \$2 label \$3 \$4;
#X obj 391 499 - 1;
#X obj 341 449 - 1;
#X obj 368 563 * 25;
#X obj 60 281 t f f f f;
#X obj 506 336 t a;
#X obj 340 327 * -1;
#X obj 230 441 * -1;
#X obj 36 439 * -1;
#X obj 507 305 bng 15 250 50 0 empty empty empty 17 7 0 10 -262144
-1 -1;
#X obj 336 282 bng 15 250 50 0 empty empty empty 17 7 0 10 -262144
-1 -1;
#X obj 179 325 bng 15 250 50 0 empty empty empty 17 7 0 10 -262144
-1 -1;
#X obj 55 58 bng 25 250 50 0 empty empty empty 17 7 0 10 -258113 -1
-1;
#X msg 152 191 0;
#X obj 340 349 + 0;
#X obj 231 514 - 1;
#X obj 36 416 + 1;
#X msg 60 126 12;
#X obj 645 313 s \$0-x;
#X obj 56 373 r \$0-x;
#X obj 106 413 r \$0-x;
#X obj 208 409 r \$0-x;
#X obj 268 439 r \$0-x;
#X obj 368 399 r \$0-x;
#X obj 408 429 r \$0-x;
#X obj 538 399 r \$0-x;
#X obj 588 429 r \$0-x;
#X floatatom 645 292 5 0 0 0 - - -, f 5;
#X msg 645 270 16;
#X floatatom 216 96 5 0 0 0 - - -, f 5;
#X floatatom 265 97 5 0 0 0 - - -, f 5;
#X obj 217 144 *;
#X obj 265 117 t b f;
#X msg 218 166 set \$1;
#X obj 37 607 + 1500;
#X obj 64 631 + 500;
#X obj 211 572 * 25;
#X obj 535 566 * 25;
#X obj 187 627 + 1500;
#X obj 214 651 + 500;
#X obj 337 637 + 1500;
#X obj 364 661 + 500;
#X obj 507 627 + 1500;
#X obj 534 651 + 500;
#X obj 37 585 * 78;
#X obj 184 598 * 78;
#X obj 341 599 * 78;
#X obj 508 602 * 78;
#X obj 215 50 r /grid/resolution/x/half;
#X obj 265 70 r /grid/resolution/y/half;
#X obj 52 17 inlet;
#X obj 615 240 r /grid/resolution/x/half;
#X connect 0 0 1 0;
#X connect 1 0 3 0;
#X connect 2 0 1 1;
#X connect 3 0 47 0;
#X connect 3 1 2 0;
#X connect 3 1 15 0;
#X connect 4 0 10 0;
#X connect 4 1 50 0;
#X connect 5 0 0 0;
#X connect 5 1 56 0;
#X connect 6 0 88 0;
#X connect 6 1 13 2;
#X connect 7 0 1 0;
#X connect 8 0 58 0;
#X connect 10 0 6 0;
#X connect 11 0 8 0;
#X connect 12 0 79 0;
#X connect 12 1 13 3;
#X connect 13 0 14 0;
#X connect 14 0 9 0;
#X connect 16 0 20 0;
#X connect 16 1 21 0;
#X connect 17 0 87 0;
#X connect 17 1 23 2;
#X connect 18 0 22 0;
#X connect 20 0 59 0;
#X connect 21 0 18 0;
#X connect 22 0 25 0;
#X connect 22 1 23 3;
#X connect 23 0 24 0;
#X connect 24 0 19 0;
#X connect 25 0 78 0;
#X connect 26 0 30 0;
#X connect 26 1 31 0;
#X connect 27 0 90 0;
#X connect 27 1 33 2;
#X connect 28 0 32 0;
#X connect 30 0 27 0;
#X connect 31 0 28 0;
#X connect 32 0 80 0;
#X connect 32 1 33 3;
#X connect 33 0 34 0;
#X connect 34 0 29 0;
#X connect 35 0 39 0;
#X connect 35 1 40 0;
#X connect 36 0 89 0;
#X connect 36 1 42 2;
#X connect 37 0 44 0;
#X connect 39 0 45 0;
#X connect 40 0 37 0;
#X connect 41 0 46 0;
#X connect 41 1 42 3;
#X connect 42 0 43 0;
#X connect 43 0 38 0;
#X connect 44 0 41 0;
#X connect 45 0 36 0;
#X connect 46 0 84 0;
#X connect 47 0 16 0;
#X connect 47 1 4 0;
#X connect 47 2 49 0;
#X connect 47 3 48 0;
#X connect 48 0 26 0;
#X connect 49 0 57 0;
#X connect 50 0 11 0;
#X connect 51 0 17 0;
#X connect 52 0 48 0;
#X connect 53 0 49 0;
#X connect 54 0 4 0;
#X connect 55 0 60 0;
#X connect 56 0 1 1;
#X connect 57 0 35 0;
#X connect 58 0 12 0;
#X connect 59 0 51 0;
#X connect 60 0 5 0;
#X connect 62 0 20 1;
#X connect 63 0 21 1;
#X connect 64 0 10 1;
#X connect 65 0 11 1;
#X connect 66 0 39 1;
#X connect 67 0 40 1;
#X connect 68 0 30 1;
#X connect 69 0 31 1;
#X connect 70 0 61 0;
#X connect 71 0 70 0;
#X connect 72 0 74 0;
#X connect 73 0 75 0;
#X connect 74 0 76 0;
#X connect 75 0 72 0;
#X connect 75 1 74 1;
#X connect 76 0 60 0;
#X connect 77 0 23 0;
#X connect 78 0 23 1;
#X connect 79 0 82 0;
#X connect 80 0 86 0;
#X connect 81 0 13 0;
#X connect 82 0 13 1;
#X connect 83 0 42 0;
#X connect 84 0 42 1;
#X connect 85 0 33 0;
#X connect 86 0 33 1;
#X connect 87 0 77 0;
#X connect 88 0 81 0;
#X connect 89 0 83 0;
#X connect 90 0 85 0;
#X connect 91 0 72 0;
#X connect 92 0 73 0;
#X connect 93 0 55 0;
#X connect 94 0 70 0;
#X restore 11 187 pd dynamic-creation;
#X obj 58 22 inlet;
#X obj 58 66 s /labels/on;
#X obj 33 101 bng 25 250 50 0 empty empty empty 17 7 0 10 -4034 -1
-1;
#X obj 33 132 s /label/init;
#X obj 58 45 tgl 15 0 empty empty empty 17 7 0 10 -262144 -1 -1 1 1
;
#X obj 11 156 bng 25 250 50 0 empty empty empty 17 7 0 10 -258113 -1
-1;
#X obj 1500 500 label 0 0;
#X obj 1422 475 label -1 -1;
#X obj 1500 475 label 0 -1;
#X obj 1422 500 label -1 0;
#X obj 1578 500 label 1 0;
#X obj 1344 475 label -2 -1;
#X obj 1578 475 label 1 -1;
#X obj 1344 500 label -2 0;
#X obj 1656 500 label 2 0;
#X obj 1266 475 label -3 -1;
#X obj 1656 475 label 2 -1;
#X obj 1266 500 label -3 0;
#X obj 1734 500 label 3 0;
#X obj 1188 475 label -4 -1;
#X obj 1734 475 label 3 -1;
#X obj 1188 500 label -4 0;
#X obj 1812 500 label 4 0;
#X obj 1110 475 label -5 -1;
#X obj 1812 475 label 4 -1;
#X obj 1110 500 label -5 0;
#X obj 1890 500 label 5 0;
#X obj 1032 475 label -6 -1;
#X obj 1890 475 label 5 -1;
#X obj 1032 500 label -6 0;
#X obj 1968 500 label 6 0;
#X obj 954 475 label -7 -1;
#X obj 1968 475 label 6 -1;
#X obj 954 500 label -7 0;
#X obj 2046 500 label 7 0;
#X obj 876 475 label -8 -1;
#X obj 2046 475 label 7 -1;
#X obj 876 500 label -8 0;
#X obj 2124 500 label 8 0;
#X obj 798 475 label -9 -1;
#X obj 2124 475 label 8 -1;
#X obj 798 500 label -9 0;
#X obj 2202 500 label 9 0;
#X obj 720 475 label -10 -1;
#X obj 2202 475 label 9 -1;
#X obj 720 500 label -10 0;
#X obj 2280 500 label 10 0;
#X obj 642 475 label -11 -1;
#X obj 2280 475 label 10 -1;
#X obj 642 500 label -11 0;
#X obj 2358 500 label 11 0;
#X obj 564 475 label -12 -1;
#X obj 2358 475 label 11 -1;
#X obj 564 500 label -12 0;
#X obj 2436 500 label 12 0;
#X obj 486 475 label -13 -1;
#X obj 2436 475 label 12 -1;
#X obj 486 500 label -13 0;
#X obj 2514 500 label 13 0;
#X obj 408 475 label -14 -1;
#X obj 2514 475 label 13 -1;
#X obj 408 500 label -14 0;
#X obj 2592 500 label 14 0;
#X obj 330 475 label -15 -1;
#X obj 2592 475 label 14 -1;
#X obj 330 500 label -15 0;
#X obj 2670 500 label 15 0;
#X obj 252 475 label -16 -1;
#X obj 2670 475 label 15 -1;
#X obj 252 500 label -16 0;
#X obj 1500 525 label 0 1;
#X obj 1422 450 label -1 -2;
#X obj 1500 450 label 0 -2;
#X obj 1422 525 label -1 1;
#X obj 1578 525 label 1 1;
#X obj 1344 450 label -2 -2;
#X obj 1578 450 label 1 -2;
#X obj 1344 525 label -2 1;
#X obj 1656 525 label 2 1;
#X obj 1266 450 label -3 -2;
#X obj 1656 450 label 2 -2;
#X obj 1266 525 label -3 1;
#X obj 1734 525 label 3 1;
#X obj 1188 450 label -4 -2;
#X obj 1734 450 label 3 -2;
#X obj 1188 525 label -4 1;
#X obj 1812 525 label 4 1;
#X obj 1110 450 label -5 -2;
#X obj 1812 450 label 4 -2;
#X obj 1110 525 label -5 1;
#X obj 1890 525 label 5 1;
#X obj 1032 450 label -6 -2;
#X obj 1890 450 label 5 -2;
#X obj 1032 525 label -6 1;
#X obj 1968 525 label 6 1;
#X obj 954 450 label -7 -2;
#X obj 1968 450 label 6 -2;
#X obj 954 525 label -7 1;
#X obj 2046 525 label 7 1;
#X obj 876 450 label -8 -2;
#X obj 2046 450 label 7 -2;
#X obj 876 525 label -8 1;
#X obj 2124 525 label 8 1;
#X obj 798 450 label -9 -2;
#X obj 2124 450 label 8 -2;
#X obj 798 525 label -9 1;
#X obj 2202 525 label 9 1;
#X obj 720 450 label -10 -2;
#X obj 2202 450 label 9 -2;
#X obj 720 525 label -10 1;
#X obj 2280 525 label 10 1;
#X obj 642 450 label -11 -2;
#X obj 2280 450 label 10 -2;
#X obj 642 525 label -11 1;
#X obj 2358 525 label 11 1;
#X obj 564 450 label -12 -2;
#X obj 2358 450 label 11 -2;
#X obj 564 525 label -12 1;
#X obj 2436 525 label 12 1;
#X obj 486 450 label -13 -2;
#X obj 2436 450 label 12 -2;
#X obj 486 525 label -13 1;
#X obj 2514 525 label 13 1;
#X obj 408 450 label -14 -2;
#X obj 2514 450 label 13 -2;
#X obj 408 525 label -14 1;
#X obj 2592 525 label 14 1;
#X obj 330 450 label -15 -2;
#X obj 2592 450 label 14 -2;
#X obj 330 525 label -15 1;
#X obj 2670 525 label 15 1;
#X obj 252 450 label -16 -2;
#X obj 2670 450 label 15 -2;
#X obj 252 525 label -16 1;
#X obj 1500 550 label 0 2;
#X obj 1422 425 label -1 -3;
#X obj 1500 425 label 0 -3;
#X obj 1422 550 label -1 2;
#X obj 1578 550 label 1 2;
#X obj 1344 425 label -2 -3;
#X obj 1578 425 label 1 -3;
#X obj 1344 550 label -2 2;
#X obj 1656 550 label 2 2;
#X obj 1266 425 label -3 -3;
#X obj 1656 425 label 2 -3;
#X obj 1266 550 label -3 2;
#X obj 1734 550 label 3 2;
#X obj 1188 425 label -4 -3;
#X obj 1734 425 label 3 -3;
#X obj 1188 550 label -4 2;
#X obj 1812 550 label 4 2;
#X obj 1110 425 label -5 -3;
#X obj 1812 425 label 4 -3;
#X obj 1110 550 label -5 2;
#X obj 1890 550 label 5 2;
#X obj 1032 425 label -6 -3;
#X obj 1890 425 label 5 -3;
#X obj 1032 550 label -6 2;
#X obj 1968 550 label 6 2;
#X obj 954 425 label -7 -3;
#X obj 1968 425 label 6 -3;
#X obj 954 550 label -7 2;
#X obj 2046 550 label 7 2;
#X obj 876 425 label -8 -3;
#X obj 2046 425 label 7 -3;
#X obj 876 550 label -8 2;
#X obj 2124 550 label 8 2;
#X obj 798 425 label -9 -3;
#X obj 2124 425 label 8 -3;
#X obj 798 550 label -9 2;
#X obj 2202 550 label 9 2;
#X obj 720 425 label -10 -3;
#X obj 2202 425 label 9 -3;
#X obj 720 550 label -10 2;
#X obj 2280 550 label 10 2;
#X obj 642 425 label -11 -3;
#X obj 2280 425 label 10 -3;
#X obj 642 550 label -11 2;
#X obj 2358 550 label 11 2;
#X obj 564 425 label -12 -3;
#X obj 2358 425 label 11 -3;
#X obj 564 550 label -12 2;
#X obj 2436 550 label 12 2;
#X obj 486 425 label -13 -3;
#X obj 2436 425 label 12 -3;
#X obj 486 550 label -13 2;
#X obj 2514 550 label 13 2;
#X obj 408 425 label -14 -3;
#X obj 2514 425 label 13 -3;
#X obj 408 550 label -14 2;
#X obj 2592 550 label 14 2;
#X obj 330 425 label -15 -3;
#X obj 2592 425 label 14 -3;
#X obj 330 550 label -15 2;
#X obj 2670 550 label 15 2;
#X obj 252 425 label -16 -3;
#X obj 2670 425 label 15 -3;
#X obj 252 550 label -16 2;
#X obj 1500 575 label 0 3;
#X obj 1422 400 label -1 -4;
#X obj 1500 400 label 0 -4;
#X obj 1422 575 label -1 3;
#X obj 1578 575 label 1 3;
#X obj 1344 400 label -2 -4;
#X obj 1578 400 label 1 -4;
#X obj 1344 575 label -2 3;
#X obj 1656 575 label 2 3;
#X obj 1266 400 label -3 -4;
#X obj 1656 400 label 2 -4;
#X obj 1266 575 label -3 3;
#X obj 1734 575 label 3 3;
#X obj 1188 400 label -4 -4;
#X obj 1734 400 label 3 -4;
#X obj 1188 575 label -4 3;
#X obj 1812 575 label 4 3;
#X obj 1110 400 label -5 -4;
#X obj 1812 400 label 4 -4;
#X obj 1110 575 label -5 3;
#X obj 1890 575 label 5 3;
#X obj 1032 400 label -6 -4;
#X obj 1890 400 label 5 -4;
#X obj 1032 575 label -6 3;
#X obj 1968 575 label 6 3;
#X obj 954 400 label -7 -4;
#X obj 1968 400 label 6 -4;
#X obj 954 575 label -7 3;
#X obj 2046 575 label 7 3;
#X obj 876 400 label -8 -4;
#X obj 2046 400 label 7 -4;
#X obj 876 575 label -8 3;
#X obj 2124 575 label 8 3;
#X obj 798 400 label -9 -4;
#X obj 2124 400 label 8 -4;
#X obj 798 575 label -9 3;
#X obj 2202 575 label 9 3;
#X obj 720 400 label -10 -4;
#X obj 2202 400 label 9 -4;
#X obj 720 575 label -10 3;
#X obj 2280 575 label 10 3;
#X obj 642 400 label -11 -4;
#X obj 2280 400 label 10 -4;
#X obj 642 575 label -11 3;
#X obj 2358 575 label 11 3;
#X obj 564 400 label -12 -4;
#X obj 2358 400 label 11 -4;
#X obj 564 575 label -12 3;
#X obj 2436 575 label 12 3;
#X obj 486 400 label -13 -4;
#X obj 2436 400 label 12 -4;
#X obj 486 575 label -13 3;
#X obj 2514 575 label 13 3;
#X obj 408 400 label -14 -4;
#X obj 2514 400 label 13 -4;
#X obj 408 575 label -14 3;
#X obj 2592 575 label 14 3;
#X obj 330 400 label -15 -4;
#X obj 2592 400 label 14 -4;
#X obj 330 575 label -15 3;
#X obj 2670 575 label 15 3;
#X obj 252 400 label -16 -4;
#X obj 2670 400 label 15 -4;
#X obj 252 575 label -16 3;
#X obj 1500 600 label 0 4;
#X obj 1422 375 label -1 -5;
#X obj 1500 375 label 0 -5;
#X obj 1422 600 label -1 4;
#X obj 1578 600 label 1 4;
#X obj 1344 375 label -2 -5;
#X obj 1578 375 label 1 -5;
#X obj 1344 600 label -2 4;
#X obj 1656 600 label 2 4;
#X obj 1266 375 label -3 -5;
#X obj 1656 375 label 2 -5;
#X obj 1266 600 label -3 4;
#X obj 1734 600 label 3 4;
#X obj 1188 375 label -4 -5;
#X obj 1734 375 label 3 -5;
#X obj 1188 600 label -4 4;
#X obj 1812 600 label 4 4;
#X obj 1110 375 label -5 -5;
#X obj 1812 375 label 4 -5;
#X obj 1110 600 label -5 4;
#X obj 1890 600 label 5 4;
#X obj 1032 375 label -6 -5;
#X obj 1890 375 label 5 -5;
#X obj 1032 600 label -6 4;
#X obj 1968 600 label 6 4;
#X obj 954 375 label -7 -5;
#X obj 1968 375 label 6 -5;
#X obj 954 600 label -7 4;
#X obj 2046 600 label 7 4;
#X obj 876 375 label -8 -5;
#X obj 2046 375 label 7 -5;
#X obj 876 600 label -8 4;
#X obj 2124 600 label 8 4;
#X obj 798 375 label -9 -5;
#X obj 2124 375 label 8 -5;
#X obj 798 600 label -9 4;
#X obj 2202 600 label 9 4;
#X obj 720 375 label -10 -5;
#X obj 2202 375 label 9 -5;
#X obj 720 600 label -10 4;
#X obj 2280 600 label 10 4;
#X obj 642 375 label -11 -5;
#X obj 2280 375 label 10 -5;
#X obj 642 600 label -11 4;
#X obj 2358 600 label 11 4;
#X obj 564 375 label -12 -5;
#X obj 2358 375 label 11 -5;
#X obj 564 600 label -12 4;
#X obj 2436 600 label 12 4;
#X obj 486 375 label -13 -5;
#X obj 2436 375 label 12 -5;
#X obj 486 600 label -13 4;
#X obj 2514 600 label 13 4;
#X obj 408 375 label -14 -5;
#X obj 2514 375 label 13 -5;
#X obj 408 600 label -14 4;
#X obj 2592 600 label 14 4;
#X obj 330 375 label -15 -5;
#X obj 2592 375 label 14 -5;
#X obj 330 600 label -15 4;
#X obj 2670 600 label 15 4;
#X obj 252 375 label -16 -5;
#X obj 2670 375 label 15 -5;
#X obj 252 600 label -16 4;
#X obj 1500 625 label 0 5;
#X obj 1422 350 label -1 -6;
#X obj 1500 350 label 0 -6;
#X obj 1422 625 label -1 5;
#X obj 1578 625 label 1 5;
#X obj 1344 350 label -2 -6;
#X obj 1578 350 label 1 -6;
#X obj 1344 625 label -2 5;
#X obj 1656 625 label 2 5;
#X obj 1266 350 label -3 -6;
#X obj 1656 350 label 2 -6;
#X obj 1266 625 label -3 5;
#X obj 1734 625 label 3 5;
#X obj 1188 350 label -4 -6;
#X obj 1734 350 label 3 -6;
#X obj 1188 625 label -4 5;
#X obj 1812 625 label 4 5;
#X obj 1110 350 label -5 -6;
#X obj 1812 350 label 4 -6;
#X obj 1110 625 label -5 5;
#X obj 1890 625 label 5 5;
#X obj 1032 350 label -6 -6;
#X obj 1890 350 label 5 -6;
#X obj 1032 625 label -6 5;
#X obj 1968 625 label 6 5;
#X obj 954 350 label -7 -6;
#X obj 1968 350 label 6 -6;
#X obj 954 625 label -7 5;
#X obj 2046 625 label 7 5;
#X obj 876 350 label -8 -6;
#X obj 2046 350 label 7 -6;
#X obj 876 625 label -8 5;
#X obj 2124 625 label 8 5;
#X obj 798 350 label -9 -6;
#X obj 2124 350 label 8 -6;
#X obj 798 625 label -9 5;
#X obj 2202 625 label 9 5;
#X obj 720 350 label -10 -6;
#X obj 2202 350 label 9 -6;
#X obj 720 625 label -10 5;
#X obj 2280 625 label 10 5;
#X obj 642 350 label -11 -6;
#X obj 2280 350 label 10 -6;
#X obj 642 625 label -11 5;
#X obj 2358 625 label 11 5;
#X obj 564 350 label -12 -6;
#X obj 2358 350 label 11 -6;
#X obj 564 625 label -12 5;
#X obj 2436 625 label 12 5;
#X obj 486 350 label -13 -6;
#X obj 2436 350 label 12 -6;
#X obj 486 625 label -13 5;
#X obj 2514 625 label 13 5;
#X obj 408 350 label -14 -6;
#X obj 2514 350 label 13 -6;
#X obj 408 625 label -14 5;
#X obj 2592 625 label 14 5;
#X obj 330 350 label -15 -6;
#X obj 2592 350 label 14 -6;
#X obj 330 625 label -15 5;
#X obj 2670 625 label 15 5;
#X obj 252 350 label -16 -6;
#X obj 2670 350 label 15 -6;
#X obj 252 625 label -16 5;
#X obj 1500 650 label 0 6;
#X obj 1422 325 label -1 -7;
#X obj 1500 325 label 0 -7;
#X obj 1422 650 label -1 6;
#X obj 1578 650 label 1 6;
#X obj 1344 325 label -2 -7;
#X obj 1578 325 label 1 -7;
#X obj 1344 650 label -2 6;
#X obj 1656 650 label 2 6;
#X obj 1266 325 label -3 -7;
#X obj 1656 325 label 2 -7;
#X obj 1266 650 label -3 6;
#X obj 1734 650 label 3 6;
#X obj 1188 325 label -4 -7;
#X obj 1734 325 label 3 -7;
#X obj 1188 650 label -4 6;
#X obj 1812 650 label 4 6;
#X obj 1110 325 label -5 -7;
#X obj 1812 325 label 4 -7;
#X obj 1110 650 label -5 6;
#X obj 1890 650 label 5 6;
#X obj 1032 325 label -6 -7;
#X obj 1890 325 label 5 -7;
#X obj 1032 650 label -6 6;
#X obj 1968 650 label 6 6;
#X obj 954 325 label -7 -7;
#X obj 1968 325 label 6 -7;
#X obj 954 650 label -7 6;
#X obj 2046 650 label 7 6;
#X obj 876 325 label -8 -7;
#X obj 2046 325 label 7 -7;
#X obj 876 650 label -8 6;
#X obj 2124 650 label 8 6;
#X obj 798 325 label -9 -7;
#X obj 2124 325 label 8 -7;
#X obj 798 650 label -9 6;
#X obj 2202 650 label 9 6;
#X obj 720 325 label -10 -7;
#X obj 2202 325 label 9 -7;
#X obj 720 650 label -10 6;
#X obj 2280 650 label 10 6;
#X obj 642 325 label -11 -7;
#X obj 2280 325 label 10 -7;
#X obj 642 650 label -11 6;
#X obj 2358 650 label 11 6;
#X obj 564 325 label -12 -7;
#X obj 2358 325 label 11 -7;
#X obj 564 650 label -12 6;
#X obj 2436 650 label 12 6;
#X obj 486 325 label -13 -7;
#X obj 2436 325 label 12 -7;
#X obj 486 650 label -13 6;
#X obj 2514 650 label 13 6;
#X obj 408 325 label -14 -7;
#X obj 2514 325 label 13 -7;
#X obj 408 650 label -14 6;
#X obj 2592 650 label 14 6;
#X obj 330 325 label -15 -7;
#X obj 2592 325 label 14 -7;
#X obj 330 650 label -15 6;
#X obj 2670 650 label 15 6;
#X obj 252 325 label -16 -7;
#X obj 2670 325 label 15 -7;
#X obj 252 650 label -16 6;
#X obj 1500 675 label 0 7;
#X obj 1422 300 label -1 -8;
#X obj 1500 300 label 0 -8;
#X obj 1422 675 label -1 7;
#X obj 1578 675 label 1 7;
#X obj 1344 300 label -2 -8;
#X obj 1578 300 label 1 -8;
#X obj 1344 675 label -2 7;
#X obj 1656 675 label 2 7;
#X obj 1266 300 label -3 -8;
#X obj 1656 300 label 2 -8;
#X obj 1266 675 label -3 7;
#X obj 1734 675 label 3 7;
#X obj 1188 300 label -4 -8;
#X obj 1734 300 label 3 -8;
#X obj 1188 675 label -4 7;
#X obj 1812 675 label 4 7;
#X obj 1110 300 label -5 -8;
#X obj 1812 300 label 4 -8;
#X obj 1110 675 label -5 7;
#X obj 1890 675 label 5 7;
#X obj 1032 300 label -6 -8;
#X obj 1890 300 label 5 -8;
#X obj 1032 675 label -6 7;
#X obj 1968 675 label 6 7;
#X obj 954 300 label -7 -8;
#X obj 1968 300 label 6 -8;
#X obj 954 675 label -7 7;
#X obj 2046 675 label 7 7;
#X obj 876 300 label -8 -8;
#X obj 2046 300 label 7 -8;
#X obj 876 675 label -8 7;
#X obj 2124 675 label 8 7;
#X obj 798 300 label -9 -8;
#X obj 2124 300 label 8 -8;
#X obj 798 675 label -9 7;
#X obj 2202 675 label 9 7;
#X obj 720 300 label -10 -8;
#X obj 2202 300 label 9 -8;
#X obj 720 675 label -10 7;
#X obj 2280 675 label 10 7;
#X obj 642 300 label -11 -8;
#X obj 2280 300 label 10 -8;
#X obj 642 675 label -11 7;
#X obj 2358 675 label 11 7;
#X obj 564 300 label -12 -8;
#X obj 2358 300 label 11 -8;
#X obj 564 675 label -12 7;
#X obj 2436 675 label 12 7;
#X obj 486 300 label -13 -8;
#X obj 2436 300 label 12 -8;
#X obj 486 675 label -13 7;
#X obj 2514 675 label 13 7;
#X obj 408 300 label -14 -8;
#X obj 2514 300 label 13 -8;
#X obj 408 675 label -14 7;
#X obj 2592 675 label 14 7;
#X obj 330 300 label -15 -8;
#X obj 2592 300 label 14 -8;
#X obj 330 675 label -15 7;
#X obj 2670 675 label 15 7;
#X obj 252 300 label -16 -8;
#X obj 2670 300 label 15 -8;
#X obj 252 675 label -16 7;
#X obj 1500 700 label 0 8;
#X obj 1422 275 label -1 -9;
#X obj 1500 275 label 0 -9;
#X obj 1422 700 label -1 8;
#X obj 1578 700 label 1 8;
#X obj 1344 275 label -2 -9;
#X obj 1578 275 label 1 -9;
#X obj 1344 700 label -2 8;
#X obj 1656 700 label 2 8;
#X obj 1266 275 label -3 -9;
#X obj 1656 275 label 2 -9;
#X obj 1266 700 label -3 8;
#X obj 1734 700 label 3 8;
#X obj 1188 275 label -4 -9;
#X obj 1734 275 label 3 -9;
#X obj 1188 700 label -4 8;
#X obj 1812 700 label 4 8;
#X obj 1110 275 label -5 -9;
#X obj 1812 275 label 4 -9;
#X obj 1110 700 label -5 8;
#X obj 1890 700 label 5 8;
#X obj 1032 275 label -6 -9;
#X obj 1890 275 label 5 -9;
#X obj 1032 700 label -6 8;
#X obj 1968 700 label 6 8;
#X obj 954 275 label -7 -9;
#X obj 1968 275 label 6 -9;
#X obj 954 700 label -7 8;
#X obj 2046 700 label 7 8;
#X obj 876 275 label -8 -9;
#X obj 2046 275 label 7 -9;
#X obj 876 700 label -8 8;
#X obj 2124 700 label 8 8;
#X obj 798 275 label -9 -9;
#X obj 2124 275 label 8 -9;
#X obj 798 700 label -9 8;
#X obj 2202 700 label 9 8;
#X obj 720 275 label -10 -9;
#X obj 2202 275 label 9 -9;
#X obj 720 700 label -10 8;
#X obj 2280 700 label 10 8;
#X obj 642 275 label -11 -9;
#X obj 2280 275 label 10 -9;
#X obj 642 700 label -11 8;
#X obj 2358 700 label 11 8;
#X obj 564 275 label -12 -9;
#X obj 2358 275 label 11 -9;
#X obj 564 700 label -12 8;
#X obj 2436 700 label 12 8;
#X obj 486 275 label -13 -9;
#X obj 2436 275 label 12 -9;
#X obj 486 700 label -13 8;
#X obj 2514 700 label 13 8;
#X obj 408 275 label -14 -9;
#X obj 2514 275 label 13 -9;
#X obj 408 700 label -14 8;
#X obj 2592 700 label 14 8;
#X obj 330 275 label -15 -9;
#X obj 2592 275 label 14 -9;
#X obj 330 700 label -15 8;
#X obj 2670 700 label 15 8;
#X obj 252 275 label -16 -9;
#X obj 2670 275 label 15 -9;
#X obj 252 700 label -16 8;
#X obj 148 28 inlet;
#X obj 249 24 inlet;
#X connect 2 0 1 0;
#X connect 4 0 5 0;
#X connect 5 0 3 0;
#X connect 7 0 11 0;
#X connect 9 0 10 0;
#X connect 11 0 8 0;
#X connect 12 0 6 0;
#X connect 589 0 9 0;
#X connect 590 0 2 0;
