#N canvas 317 130 1136 697 10;
#X obj 451 523 text2d;
#X obj 420 22 gemhead;
#X floatatom 509 493 5 0 0 0 - - -, f 5;
#X floatatom 461 195 5 0 0 0 - - -, f 5;
#X obj 420 216 translateXYZ 0 0 0;
#X floatatom 507 195 5 0 0 0 - - -, f 5;
#X floatatom 461 89 5 0 0 0 - - -, f 5;
#X obj 505 171 * 2;
#X floatatom 505 87 5 0 0 0 - - -, f 5;
#X msg 505 67 12;
#X msg 460 65 -26;
#X msg 155 337 font \$1;
#X obj 153 148 openpanel;
#X obj 153 131 bng 15 250 50 0 empty empty empty 0 -6 0 8 -262144 -1
-1;
#X obj 461 173 * 2;
#X obj 461 130 + 1;
#X obj 461 110 * 2;
#X obj 505 129 + 1;
#X obj 505 109 * 2;
#X text 845 132 zahlen;
#X floatatom 816 164 5 0 0 0 - - -, f 5;
#X obj 496 358 prepend string;
#X obj 723 298 list append;
#N canvas 634 164 647 581 numbers-99-0-99 0;
#X obj 307 45 inlet;
#X obj 387 514 outlet;
#X floatatom 307 64 5 0 0 0 - - -, f 5;
#X obj 352 259 t f f;
#X obj 352 282 / 10;
#X floatatom 350 327 5 0 0 0 - - -, f 5;
#X floatatom 395 327 5 0 0 0 - - -, f 5;
#X obj 351 307 i;
#X obj 395 306 % 10;
#X obj 395 352 + 48;
#X obj 350 353 + 48;
#X obj 307 233 moses 10;
#X floatatom 307 321 5 0 0 0 - - -, f 5;
#X obj 307 300 % 10;
#X obj 307 346 + 48;
#X obj 350 377 list append;
#X obj 307 402 t a;
#X obj 474 245 < 0;
#X obj 307 173 t f f;
#X obj 474 272 sel 0 1;
#X obj 387 458 list prepend;
#X msg 456 366 bang;
#X msg 495 366 45;
#X obj 307 210 abs;
#X obj 346 135 + 1;
#X obj 307 111 moses 0;
#X connect 0 0 2 0;
#X connect 2 0 25 0;
#X connect 3 0 4 0;
#X connect 3 1 8 0;
#X connect 4 0 7 0;
#X connect 5 0 10 0;
#X connect 6 0 9 0;
#X connect 7 0 5 0;
#X connect 8 0 6 0;
#X connect 9 0 15 1;
#X connect 10 0 15 0;
#X connect 11 0 13 0;
#X connect 11 1 3 0;
#X connect 12 0 14 0;
#X connect 13 0 12 0;
#X connect 14 0 16 0;
#X connect 15 0 16 0;
#X connect 16 0 20 0;
#X connect 17 0 19 0;
#X connect 18 0 23 0;
#X connect 18 1 17 0;
#X connect 19 0 21 0;
#X connect 19 1 22 0;
#X connect 20 0 1 0;
#X connect 21 0 20 1;
#X connect 22 0 20 1;
#X connect 23 0 11 0;
#X connect 24 0 18 0;
#X connect 25 0 18 0;
#X connect 25 1 24 0;
#X restore 835 219 pd numbers-99-0-99;
#N canvas 0 22 522 486 letters_a-Z 0;
#X obj 95 29 inlet;
#X obj 103 355 outlet;
#X floatatom 149 153 5 0 0 0 - - -, f 5;
#X obj 106 94 moses 0;
#X floatatom 105 135 5 0 0 0 - - -, f 5;
#X obj 149 186 + 64;
#X obj 105 188 + 96;
#X obj 110 231 t a;
#X obj 105 165 abs;
#X obj 149 128 + 1;
#X msg 218 272 124;
#X obj 186 245 t a b;
#X msg 173 283 bang;
#X obj 114 317 list append;
#X connect 0 0 3 0;
#X connect 2 0 5 0;
#X connect 3 0 4 0;
#X connect 3 1 9 0;
#X connect 4 0 8 0;
#X connect 5 0 7 0;
#X connect 6 0 7 0;
#X connect 7 0 13 0;
#X connect 8 0 6 0;
#X connect 9 0 2 0;
#X connect 10 0 13 1;
#X connect 11 1 10 0;
#X connect 12 0 13 1;
#X connect 13 0 1 0;
#X restore 719 219 pd letters_a-Z;
#X floatatom 719 196 5 0 0 0 - - -, f 5;
#X obj 787 188 t b f;
#X floatatom 757 25 5 0 0 0 - - -, f 5;
#X obj 756 49 t f f;
#X text 748 3 spalten;
#X floatatom 669 22 5 0 0 0 - - -, f 5;
#X obj 669 46 t f f;
#X text 667 0 zeilen;
#X obj 516 463 r /labels/size;
#X obj 168 309 symbol;
#X msg 173 249 /Users/hi/Library/Fonts/DK Otago.otf;
#X msg 72 351 set \$1;
#X msg 184 275 /Users/hi/Library/Fonts/digital-7.ttf;
#X msg 74 384;
#X obj 178 187 r /labels/font;
#X obj 758 -24 \$2;
#X obj 669 -29 \$1;
#X msg 162 225 /Users/hi/Library/Fonts/Lisbon_CG.otf;
#X msg 491 464 33;
#X obj 624 -50 bng 15 250 50 0 empty empty empty 17 7 0 10 -262144
-1 -1;
#X obj 694 -52 t b b b b;
#X obj 670 -76 loadbang;
#X obj 421 2 r /labels/on;
#X floatatom 564 132 5 0 0 0 - - -, f 5;
#X obj 519 -50 r /label/init;
#X obj 461 151 / 6;
#X obj 505 149 / 6;
#X obj 555 110 r /grid/resolution/y/half;
#X connect 1 0 4 0;
#X connect 2 0 0 1;
#X connect 3 0 4 1;
#X connect 4 0 0 0;
#X connect 5 0 4 2;
#X connect 6 0 16 0;
#X connect 7 0 5 0;
#X connect 8 0 18 0;
#X connect 9 0 8 0;
#X connect 10 0 6 0;
#X connect 11 0 0 0;
#X connect 12 0 11 0;
#X connect 12 0 36 0;
#X connect 13 0 12 0;
#X connect 14 0 3 0;
#X connect 15 0 50 0;
#X connect 16 0 15 0;
#X connect 17 0 51 0;
#X connect 18 0 17 0;
#X connect 20 0 26 0;
#X connect 21 0 0 0;
#X connect 22 0 21 0;
#X connect 23 0 22 1;
#X connect 24 0 22 0;
#X connect 25 0 24 0;
#X connect 26 0 25 0;
#X connect 26 1 23 0;
#X connect 27 0 28 0;
#X connect 28 0 8 0;
#X connect 28 1 20 0;
#X connect 30 0 31 0;
#X connect 31 0 6 0;
#X connect 31 1 25 0;
#X connect 33 0 2 0;
#X connect 34 0 11 0;
#X connect 35 0 34 0;
#X connect 36 0 38 0;
#X connect 37 0 34 0;
#X connect 39 0 34 0;
#X connect 40 0 27 0;
#X connect 41 0 30 0;
#X connect 42 0 34 0;
#X connect 43 0 2 0;
#X connect 44 0 45 0;
#X connect 45 0 43 0;
#X connect 45 1 41 0;
#X connect 45 2 40 0;
#X connect 45 3 42 0;
#X connect 46 0 45 0;
#X connect 47 0 1 0;
#X connect 48 0 50 1;
#X connect 48 0 51 1;
#X connect 49 0 44 0;
#X connect 50 0 14 0;
#X connect 51 0 7 0;
#X connect 52 0 48 0;
