#N canvas 0 22 659 571 10;
#X obj 95 502 curve 2;
#X obj 84 218 colorRGB 1 0 0;
#X msg 91 243 draw line;
#X obj 83 184 gemhead 70;
#X obj 289 357 / 9;
#X obj 289 379 * 2;
#X floatatom 289 295 5 0 0 0 - - -, f 5;
#X obj 289 337 + 1;
#X floatatom 103 391 5 0 0 0 - - -, f 5;
#X msg 103 407 width \$1;
#X obj 104 283 r width;
#X obj 354 363 / 9;
#X obj 354 385 * 2;
#X floatatom 354 301 5 0 0 0 - - -, f 5;
#X obj 354 343 + 1;
#X obj 354 323 * 1;
#X obj 289 317 * 1;
#X obj 103 368 + 2;
#X floatatom 103 349 5 0 0 0 - - -, f 5;
#X obj 117 329 t b f;
#X obj 117 308 r /RedCross/width/plus;
#X obj 289 275 \$1;
#X obj 354 279 \$2;
#X obj 305 211 loadbang;
#X obj 102 129 r /RedCross/on;
#X obj 83 166 tgl 15 0 empty empty empty 17 7 0 10 -262144 -1 -1 0
1;
#X obj 273 177 inlet;
#X obj 423 187 inlet;
#X obj 79 94 inlet;
#X msg 289 413 0 \$1 0;
#X msg 352 415 0 \$1 0;
#X connect 1 0 0 0;
#X connect 2 0 0 0;
#X connect 3 0 1 0;
#X connect 4 0 5 0;
#X connect 5 0 29 0;
#X connect 6 0 16 0;
#X connect 7 0 4 0;
#X connect 8 0 9 0;
#X connect 9 0 0 0;
#X connect 10 0 18 0;
#X connect 11 0 12 0;
#X connect 12 0 30 0;
#X connect 13 0 15 0;
#X connect 14 0 11 0;
#X connect 15 0 14 0;
#X connect 16 0 7 0;
#X connect 17 0 8 0;
#X connect 18 0 17 0;
#X connect 19 0 18 0;
#X connect 19 1 17 1;
#X connect 20 0 19 0;
#X connect 21 0 6 0;
#X connect 22 0 13 0;
#X connect 23 0 21 0;
#X connect 23 0 22 0;
#X connect 24 0 25 0;
#X connect 25 0 3 0;
#X connect 26 0 6 0;
#X connect 27 0 13 0;
#X connect 28 0 25 0;
#X connect 29 0 0 1;
#X connect 30 0 0 2;
