#N canvas 0 22 729 581 10;
#X obj 201 172 gemhead 1;
#X obj 207 248 colorRGB 0 0 0;
#X obj 207 276 rectangle 8 4;
#X floatatom 232 218 5 0 0 0 - - -;
#X floatatom 276 217 5 0 0 0 - - -;
#X floatatom 318 217 5 0 0 0 - - -;
#X obj 313 174 inlet;
#X obj 361 174 inlet;
#X obj 414 173 inlet;
#X obj 203 128 inlet;
#X obj 248 376 outlet;
#X connect 0 0 1 0;
#X connect 1 0 2 0;
#X connect 2 0 10 0;
#X connect 3 0 1 1;
#X connect 4 0 1 2;
#X connect 5 0 1 3;
#X connect 6 0 3 0;
#X connect 7 0 4 0;
#X connect 8 0 5 0;
#X connect 9 0 0 0;
