#N canvas 23 331 1203 704 10;
#X obj 123 61 inlet;
#X floatatom 164 568 5 0 0 0 - - -, f 5;
#X obj 164 523 / 9;
#X obj 164 545 * 2;
#X floatatom 164 482 5 0 0 0 - - -, f 5;
#X obj 164 503 + 1;
#X floatatom 214 568 5 0 0 0 - - -, f 5;
#X obj 214 523 / 9;
#X obj 214 545 * 2;
#X floatatom 214 482 5 0 0 0 - - -, f 5;
#X obj 214 503 + 1;
#X obj 120 323 translateXYZ 0 0 0;
#X floatatom 160 289 5 0 0 0 - - -, f 5;
#X obj 160 244 / 9;
#X obj 160 266 * 2;
#X floatatom 160 203 5 0 0 0 - - -, f 5;
#X obj 160 224 + 1;
#X floatatom 200 289 5 0 0 0 - - -, f 5;
#X obj 200 244 / 9;
#X obj 200 266 * 2;
#X floatatom 200 203 5 0 0 0 - - -, f 5;
#X obj 200 224 + 1;
#X obj 855 599 text2d;
#X floatatom 895 577 5 0 0 0 - - -, f 5;
#X obj 857 408 translateXYZ 0 0 0;
#X floatatom 897 374 5 0 0 0 - - -, f 5;
#X obj 897 329 / 9;
#X obj 897 351 * 2;
#X floatatom 897 288 5 0 0 0 - - -, f 5;
#X obj 897 309 + 1;
#X floatatom 937 374 5 0 0 0 - - -, f 5;
#X obj 937 329 / 9;
#X obj 937 351 * 2;
#X floatatom 937 288 5 0 0 0 - - -, f 5;
#X obj 937 309 + 1;
#X msg 541 475 font \$1;
#X obj 539 286 openpanel;
#X obj 539 269 bng 15 250 50 0 empty empty empty 0 -6 0 8 -262144 -1
-1;
#X obj 554 447 symbol;
#X msg 559 387 /Users/hi/Library/Fonts/DK Otago.otf;
#X msg 458 489 set \$1;
#X msg 570 413 /Users/hi/Library/Fonts/digital-7.ttf;
#X msg 589 263 /Users/hi/Library/Fonts/NeoPrintM319.otf;
#X obj 564 325 r /labels/font;
#X msg 548 363 /Users/hi/Library/Fonts/Lisbon_CG.otf;
#X obj 122 118 gemhead 90;
#X obj 867 208 gemhead 91;
#X floatatom 154 407 5 0 0 0 - - -, f 5;
#X floatatom 200 408 5 0 0 0 - - -, f 5;
#X floatatom 241 408 5 0 0 0 - - -, f 5;
#X floatatom 883 446 5 0 0 0 - - -, f 5;
#X floatatom 926 448 5 0 0 0 - - -, f 5;
#X floatatom 968 447 5 0 0 0 - - -, f 5;
#X obj 671 200 loadbang;
#X msg 214 462 0;
#X obj 333 408 loadbang;
#X obj 200 152 loadbang;
#X msg 164 462 4;
#X msg 160 183 -1;
#X msg 897 268 -1;
#X msg 574 240 /Library/Fonts/AmericanTypewriter.ttc;
#X msg 886 502 text PureData-TestPatternCreator;
#X msg 896 553 20;
#X obj 857 472 colorRGB 0.27 0.64 0.48 1;
#X obj 120 589 rectangle 1.21 0.132;
#X msg 201 183 -18.3;
#X msg 937 268 -18.2;
#X obj 122 157 alpha;
#X floatatom 286 410 5 0 0 0 - - -, f 5;
#X obj 120 437 colorRGB 0 0.25 0.31 0.9;
#X msg 458 516;
#X obj 957 551 r /screen/size/y;
#X floatatom 957 594 5 0 0 0 - - -, f 5;
#X obj 957 632 i;
#X obj 957 612 max 10;
#X obj 957 573 / 50;
#X connect 0 0 45 0;
#X connect 0 0 46 0;
#X connect 1 0 64 1;
#X connect 2 0 3 0;
#X connect 3 0 1 0;
#X connect 4 0 5 0;
#X connect 5 0 2 0;
#X connect 6 0 64 2;
#X connect 7 0 8 0;
#X connect 8 0 6 0;
#X connect 9 0 10 0;
#X connect 10 0 7 0;
#X connect 11 0 69 0;
#X connect 12 0 11 1;
#X connect 13 0 14 0;
#X connect 14 0 12 0;
#X connect 15 0 16 0;
#X connect 16 0 13 0;
#X connect 17 0 11 2;
#X connect 18 0 19 0;
#X connect 19 0 17 0;
#X connect 20 0 21 0;
#X connect 21 0 18 0;
#X connect 23 0 22 1;
#X connect 24 0 63 0;
#X connect 25 0 24 1;
#X connect 26 0 27 0;
#X connect 27 0 25 0;
#X connect 28 0 29 0;
#X connect 29 0 26 0;
#X connect 30 0 24 2;
#X connect 31 0 32 0;
#X connect 32 0 30 0;
#X connect 33 0 34 0;
#X connect 34 0 31 0;
#X connect 35 0 22 0;
#X connect 36 0 35 0;
#X connect 36 0 40 0;
#X connect 37 0 36 0;
#X connect 38 0 35 0;
#X connect 39 0 38 0;
#X connect 40 0 70 0;
#X connect 41 0 38 0;
#X connect 42 0 38 0;
#X connect 43 0 38 0;
#X connect 44 0 38 0;
#X connect 45 0 67 0;
#X connect 46 0 24 0;
#X connect 47 0 69 1;
#X connect 48 0 69 2;
#X connect 49 0 69 3;
#X connect 50 0 63 1;
#X connect 51 0 63 2;
#X connect 52 0 63 3;
#X connect 53 0 62 0;
#X connect 53 0 61 0;
#X connect 53 0 59 0;
#X connect 53 0 66 0;
#X connect 53 0 60 0;
#X connect 54 0 9 0;
#X connect 56 0 58 0;
#X connect 56 0 65 0;
#X connect 57 0 4 0;
#X connect 58 0 15 0;
#X connect 59 0 28 0;
#X connect 60 0 38 0;
#X connect 61 0 22 0;
#X connect 62 0 23 0;
#X connect 63 0 22 0;
#X connect 65 0 20 0;
#X connect 66 0 33 0;
#X connect 67 0 11 0;
#X connect 68 0 69 4;
#X connect 69 0 64 0;
#X connect 71 0 75 0;
#X connect 72 0 74 0;
#X connect 73 0 23 0;
#X connect 74 0 73 0;
#X connect 75 0 72 0;
