#N canvas 714 201 810 443 10;
#X obj 110 407 gemwin;
#X floatatom 135 129 5 0 0 2 x - -, f 5;
#X floatatom 136 157 5 0 0 2 y - -, f 5;
#X msg 110 386 create \, 1;
#X obj 110 362 delay;
#X obj 110 336 t b a;
#N canvas 0 22 599 325 collect-pack 0;
#X obj 87 31 inlet;
#X obj 165 32 inlet;
#X obj 229 32 inlet;
#X obj 283 32 inlet;
#X obj 125 208 outlet;
#X msg 100 62 bang;
#X obj 335 33 inlet;
#X obj 384 33 inlet;
#X obj 436 34 inlet;
#X obj 483 34 inlet;
#X msg 129 160 \$2 \$3 \$4 \$5 \$6 \$7 \$8;
#X obj 353 64 + 1;
#X obj 128 132 pack f 1920 1080 1680 -50 2 0 0;
#X obj 182 72 s /screen/size/x;
#X obj 224 92 s /screen/size/y;
#X connect 0 0 5 0;
#X connect 1 0 12 1;
#X connect 1 0 13 0;
#X connect 2 0 12 2;
#X connect 2 0 14 0;
#X connect 3 0 12 3;
#X connect 5 0 12 0;
#X connect 6 0 12 4;
#X connect 7 0 11 0;
#X connect 8 0 12 6;
#X connect 9 0 12 7;
#X connect 10 0 4 0;
#X connect 11 0 12 5;
#X connect 12 0 10 0;
#X restore 109 213 pd collect-pack;
#X obj 104 117 bng 25 250 50 0 empty empty empty 17 7 0 10 -204786
-1 -1;
#X obj 104 145 bng 25 250 50 0 empty empty empty 17 7 0 10 -261234
-1 -1;
#X msg 66 237 0 \, destroy;
#X obj 462 132 vradio 15 1 0 3 empty empty empty 0 -8 0 10 -262144
-1 -1 2;
#X floatatom 462 183 5 0 0 0 - - -, f 5;
#X text 484 129 deactivate fullscreen;
#X text 483 146 fullscreen on screen 1;
#X text 483 162 fullscreen on screen 2;
#X text 643 130 press ESC to quit;
#X text 180 113 offset;
#X floatatom 175 129 5 0 0 2 x - -, f 5;
#X floatatom 176 157 5 0 0 2 y - -, f 5;
#X msg 32 322 print;
#X obj 226 131 hradio 15 1 0 2 empty empty buffer-mode 0 -6 0 11 -262144
-1 -1 0;
#X obj 227 160 hradio 15 1 0 2 empty empty Border 0 -6 0 11 -262144
-1 -1 1;
#X msg 110 284 0 \, destroy \, dimen \$1 \$2 \, offset \$3 \$4 \, buffer
\$5 \, border \$6 \, fullscreen \$7;
#X msg 218 370 frame \$1;
#X floatatom 277 160 5 0 0 0 - - -, f 5;
#X obj 281 28 loadbang;
#X msg 281 56 25;
#X obj 244 399 s /frame-rate;
#X connect 1 0 6 1;
#X connect 2 0 6 2;
#X connect 3 0 0 0;
#X connect 4 0 3 0;
#X connect 5 0 4 0;
#X connect 5 1 0 0;
#X connect 6 0 22 0;
#X connect 7 0 6 0;
#X connect 8 0 9 0;
#X connect 9 0 0 0;
#X connect 10 0 11 0;
#X connect 11 0 6 7;
#X connect 17 0 6 3;
#X connect 18 0 6 4;
#X connect 19 0 0 0;
#X connect 20 0 6 5;
#X connect 21 0 6 6;
#X connect 22 0 5 0;
#X connect 23 0 0 0;
#X connect 24 0 23 0;
#X connect 24 0 27 0;
#X connect 25 0 26 0;
#X connect 26 0 24 0;
#X coords 0 -1 1 1 220 80 1 100 100;
